<?xml version="1.0" encoding="utf-8"?>
<!-- Generator: Adobe Illustrator 16.0.0, SVG Export Plug-In . SVG Version: 6.00 Build 0)  -->
<!DOCTYPE svg PUBLIC "-//W3C//DTD SVG 1.1//EN" "http://www.w3.org/Graphics/SVG/1.1/DTD/svg11.dtd">
<svg version="1.1" id="Layer_2" xmlns="http://www.w3.org/2000/svg" xmlns:xlink="http://www.w3.org/1999/xlink" x="0px" y="0px"
	 width="404px" height="98px" viewBox="8.092 3.308 404 98" enable-background="new 8.092 3.308 404 98" xml:space="preserve">
<g>
	
		<linearGradient id="SVGID_1_" gradientUnits="userSpaceOnUse" x1="-2352.7844" y1="-2102.4746" x2="-2334.0493" y2="-2109.2937" gradientTransform="matrix(1 0 0 1 2404.7998 2159.0195)">
		<stop  offset="0" style="stop-color:#333333"/>
		<stop  offset="0.0269" style="stop-color:#3F3F3F"/>
		<stop  offset="0.0804" style="stop-color:#505050"/>
		<stop  offset="0.147" style="stop-color:#5B5B5B"/>
		<stop  offset="0.2405" style="stop-color:#626262"/>
		<stop  offset="0.5" style="stop-color:#646464"/>
		<stop  offset="0.7249" style="stop-color:#626262"/>
		<stop  offset="0.8059" style="stop-color:#5B5B5B"/>
		<stop  offset="0.8636" style="stop-color:#505050"/>
		<stop  offset="0.9103" style="stop-color:#3F3F3F"/>
		<stop  offset="0.9503" style="stop-color:#292929"/>
		<stop  offset="0.985" style="stop-color:#0E0E0E"/>
		<stop  offset="1" style="stop-color:#000000"/>
	</linearGradient>
	<path fill="url(#SVGID_1_)" d="M72.074,54.089c-0.023-0.046-0.046-0.093-0.067-0.14l-2.736-5.698H54.904
		c-2.307,0-4.176,1.816-4.176,4.055c0,2.24,1.87,4.056,4.176,4.056h18.263"/>
	<line fill="none" x1="68.735" y1="48.252" x2="68.735" y2="48.252"/>
	
		<linearGradient id="SVGID_2_" gradientUnits="userSpaceOnUse" x1="-2311.5845" y1="-2058.0264" x2="-2347.2124" y2="-2155.9136" gradientTransform="matrix(1 0 0 1 2404.7998 2159.0195)">
		<stop  offset="0" style="stop-color:#333333"/>
		<stop  offset="0.0307" style="stop-color:#414141"/>
		<stop  offset="0.0838" style="stop-color:#525252"/>
		<stop  offset="0.1498" style="stop-color:#5D5D5D"/>
		<stop  offset="0.2426" style="stop-color:#646464"/>
		<stop  offset="0.5" style="stop-color:#666666"/>
		<stop  offset="0.724" style="stop-color:#646464"/>
		<stop  offset="0.8047" style="stop-color:#5D5D5D"/>
		<stop  offset="0.8621" style="stop-color:#525252"/>
		<stop  offset="0.9087" style="stop-color:#414141"/>
		<stop  offset="0.9485" style="stop-color:#2B2B2B"/>
		<stop  offset="0.9831" style="stop-color:#101010"/>
		<stop  offset="1" style="stop-color:#000000"/>
	</linearGradient>
	<path fill="url(#SVGID_2_)" d="M99.093,94.15L81.419,56.248h0l-2.664-5.712c-0.021-0.047-0.043-0.094-0.066-0.14L58.351,6.778
		c-0.001-0.002-0.003-0.004-0.004-0.007c0.493,1.053,0.534,2.308,0.004,3.444l-3.685,7.903l1.562,3.349l12.428,26.651l2.663,5.712
		c0.021,0.047,0.043,0.094,0.065,0.14l20.339,43.617c0.019,0.042,0.039,0.082,0.06,0.122c0.005,0.011,0.011,0.021,0.016,0.032
		c0.018,0.036,0.037,0.071,0.056,0.105c0.003,0.005,0.006,0.01,0.009,0.015c0.021,0.039,0.043,0.077,0.066,0.114
		c0.006,0.01,0.012,0.02,0.018,0.029c0.02,0.031,0.039,0.062,0.059,0.093c0.005,0.007,0.01,0.015,0.015,0.022
		c0.024,0.037,0.049,0.072,0.073,0.107c0.006,0.008,0.013,0.017,0.019,0.025c0.021,0.028,0.042,0.057,0.063,0.085
		c0.006,0.008,0.013,0.017,0.019,0.025c0.027,0.034,0.053,0.067,0.081,0.099c0.006,0.007,0.011,0.014,0.017,0.021
		c0.022,0.027,0.046,0.053,0.069,0.08c0.008,0.009,0.016,0.018,0.023,0.026c0.028,0.031,0.057,0.063,0.086,0.093
		c0.004,0.005,0.009,0.01,0.013,0.015c0.026,0.026,0.051,0.052,0.078,0.078c0.009,0.008,0.018,0.018,0.026,0.025
		c0.028,0.028,0.058,0.055,0.087,0.082c0.003,0.002,0.005,0.004,0.008,0.007c0.031,0.027,0.062,0.054,0.093,0.081
		c0.009,0.008,0.019,0.017,0.028,0.024c0.028,0.023,0.055,0.044,0.082,0.067c0.007,0.005,0.012,0.01,0.018,0.015
		c0.033,0.024,0.066,0.05,0.099,0.074c0.009,0.007,0.02,0.015,0.029,0.021c0.026,0.02,0.054,0.038,0.082,0.057
		c0.008,0.005,0.016,0.011,0.024,0.017c0.035,0.023,0.069,0.045,0.103,0.066c0.01,0.006,0.02,0.012,0.029,0.018
		c0.027,0.017,0.055,0.034,0.083,0.05c0.01,0.006,0.02,0.011,0.03,0.017c0.035,0.021,0.071,0.041,0.106,0.059
		c0.009,0.005,0.017,0.009,0.025,0.014c0.03,0.015,0.059,0.03,0.089,0.045c0.011,0.006,0.021,0.011,0.032,0.016
		c0.037,0.019,0.074,0.036,0.112,0.052c0.005,0.002,0.011,0.005,0.018,0.008c0.032,0.014,0.065,0.028,0.098,0.042
		c0.011,0.005,0.023,0.01,0.034,0.014c0.036,0.014,0.072,0.028,0.109,0.041c0.002,0.001,0.006,0.002,0.008,0.004
		c0.039,0.014,0.078,0.028,0.117,0.041c0.012,0.003,0.023,0.008,0.035,0.011c0.034,0.011,0.067,0.021,0.101,0.031
		c0.007,0.002,0.014,0.004,0.021,0.006c0.04,0.011,0.08,0.022,0.119,0.033c0.011,0.002,0.022,0.005,0.033,0.008
		c0.033,0.008,0.066,0.016,0.099,0.023c0.009,0.002,0.018,0.004,0.027,0.006c0.041,0.009,0.082,0.017,0.123,0.024
		c0.009,0.001,0.019,0.003,0.028,0.004c0.034,0.006,0.068,0.012,0.102,0.017c0.01,0.002,0.02,0.003,0.03,0.004
		c0.042,0.006,0.083,0.011,0.125,0.016c0.007,0,0.015,0.001,0.022,0.002c0.036,0.004,0.072,0.007,0.107,0.01
		c0.011,0,0.021,0.001,0.033,0.002c0.042,0.003,0.084,0.005,0.126,0.007c0.003,0,0.008,0,0.011,0
		c0.04,0.001,0.079,0.002,0.118,0.002c0.012,0,0.025,0,0.038,0c0.021,0,0.041-0.001,0.061-0.001c0.015,0,0.029,0,0.043,0
		c0.021-0.001,0.042-0.002,0.063-0.002c0.014-0.001,0.027-0.001,0.041-0.002c0.022-0.001,0.044-0.002,0.066-0.004
		c0.013-0.001,0.025-0.001,0.038-0.003c0.024-0.002,0.049-0.004,0.075-0.006c0.009-0.001,0.02-0.002,0.029-0.003
		c0.07-0.008,0.141-0.017,0.21-0.029c0.007,0,0.013-0.001,0.02-0.002c0.028-0.005,0.056-0.01,0.084-0.016
		c0.011-0.001,0.021-0.004,0.032-0.006c0.024-0.005,0.048-0.01,0.072-0.015c0.012-0.002,0.024-0.005,0.036-0.008
		c0.022-0.005,0.044-0.01,0.067-0.016c0.014-0.003,0.026-0.007,0.039-0.01c0.022-0.005,0.044-0.012,0.065-0.018
		c0.013-0.003,0.026-0.006,0.039-0.011c0.021-0.006,0.043-0.012,0.065-0.019c0.013-0.004,0.026-0.008,0.039-0.012
		c0.021-0.007,0.043-0.014,0.064-0.021c0.013-0.004,0.026-0.009,0.039-0.013c0.022-0.008,0.044-0.016,0.066-0.024
		c0.012-0.004,0.024-0.009,0.037-0.013c0.023-0.009,0.046-0.017,0.069-0.027c0.011-0.004,0.022-0.008,0.033-0.012
		c0.026-0.011,0.052-0.022,0.079-0.033c0.007-0.003,0.015-0.007,0.022-0.01c0.034-0.015,0.068-0.03,0.102-0.046
		C99.161,98.604,100.042,96.185,99.093,94.15z"/>
	
		<linearGradient id="SVGID_3_" gradientUnits="userSpaceOnUse" x1="-2406.0295" y1="-2096.6743" x2="-2335.5313" y2="-2122.3335" gradientTransform="matrix(1 0 0 1 2404.7998 2159.0195)">
		<stop  offset="0" style="stop-color:#003300"/>
		<stop  offset="0.0241" style="stop-color:#0B540B"/>
		<stop  offset="0.0529" style="stop-color:#157315"/>
		<stop  offset="0.0855" style="stop-color:#1E8F1E"/>
		<stop  offset="0.1223" style="stop-color:#26A526"/>
		<stop  offset="0.1653" style="stop-color:#2BB62B"/>
		<stop  offset="0.2184" style="stop-color:#2FC12F"/>
		<stop  offset="0.293" style="stop-color:#31C831"/>
		<stop  offset="0.5" style="stop-color:#32CA32"/>
		<stop  offset="0.7595" style="stop-color:#32C832"/>
		<stop  offset="0.853" style="stop-color:#32C132"/>
		<stop  offset="0.9196" style="stop-color:#32B632"/>
		<stop  offset="0.9731" style="stop-color:#33A533"/>
		<stop  offset="1" style="stop-color:#339933"/>
	</linearGradient>
	<path fill="url(#SVGID_3_)" d="M58.453,7.019c-0.018-0.039-0.037-0.077-0.056-0.114c-0.005-0.012-0.011-0.022-0.016-0.033
		c-0.018-0.035-0.037-0.069-0.056-0.104c-0.002-0.004-0.004-0.008-0.005-0.012c-0.001-0.001-0.002-0.003-0.004-0.005
		c-0.021-0.038-0.043-0.076-0.065-0.113c-0.006-0.01-0.012-0.02-0.018-0.029c-0.019-0.031-0.039-0.062-0.059-0.092
		c-0.005-0.008-0.01-0.016-0.015-0.023c-0.023-0.036-0.047-0.071-0.073-0.105c-0.007-0.01-0.013-0.019-0.021-0.029
		c-0.02-0.027-0.039-0.054-0.06-0.081C58.004,6.276,58.002,6.274,58,6.272c-0.005-0.007-0.009-0.014-0.015-0.02
		c-0.024-0.032-0.05-0.063-0.075-0.095c-0.008-0.01-0.016-0.02-0.024-0.029c-0.021-0.025-0.042-0.051-0.065-0.076
		c-0.001-0.001-0.002-0.003-0.003-0.004c-0.007-0.008-0.014-0.016-0.021-0.024c-0.026-0.029-0.054-0.058-0.081-0.086
		c-0.008-0.009-0.016-0.017-0.024-0.025c-0.022-0.023-0.046-0.047-0.069-0.07c-0.002-0.002-0.004-0.004-0.007-0.007
		c-0.008-0.007-0.015-0.015-0.022-0.021c-0.028-0.027-0.057-0.054-0.085-0.08c-0.002-0.002-0.004-0.004-0.007-0.005
		c-0.004-0.004-0.009-0.009-0.013-0.012c-0.026-0.024-0.054-0.047-0.081-0.071c-0.002-0.001-0.004-0.003-0.006-0.005
		c-0.008-0.006-0.017-0.014-0.025-0.021c-0.026-0.021-0.052-0.043-0.079-0.063c-0.007-0.006-0.014-0.012-0.021-0.017
		c-0.032-0.024-0.064-0.048-0.096-0.072c-0.011-0.007-0.021-0.016-0.032-0.023c0,0,0,0-0.001,0c-0.024-0.018-0.05-0.036-0.076-0.054
		C57.06,5.384,57.05,5.377,57.04,5.37c-0.033-0.022-0.066-0.043-0.1-0.064c-0.013-0.008-0.025-0.016-0.039-0.023
		c-0.023-0.015-0.046-0.028-0.068-0.042c-0.016-0.009-0.032-0.019-0.047-0.027c-0.021-0.013-0.044-0.025-0.066-0.038
		c-0.012-0.006-0.024-0.014-0.037-0.021c-0.005-0.002-0.01-0.004-0.015-0.007s-0.009-0.005-0.013-0.007
		c-0.025-0.013-0.051-0.026-0.076-0.039C56.575,5.101,56.573,5.1,56.572,5.1c-0.016-0.008-0.031-0.015-0.047-0.022
		c-0.022-0.011-0.045-0.021-0.067-0.031c-0.015-0.007-0.03-0.014-0.044-0.021c-0.001,0-0.002,0-0.003-0.001
		c-0.03-0.013-0.062-0.026-0.092-0.04c-0.013-0.005-0.025-0.01-0.038-0.015c-0.033-0.014-0.067-0.027-0.101-0.039
		c-0.007-0.003-0.013-0.005-0.02-0.007v0c-0.036-0.013-0.073-0.025-0.109-0.038c-0.013-0.004-0.025-0.008-0.038-0.012
		c-0.031-0.01-0.063-0.021-0.095-0.029c-0.009-0.003-0.018-0.006-0.026-0.008c-0.039-0.011-0.077-0.021-0.117-0.032
		c-0.012-0.002-0.024-0.006-0.037-0.008c-0.031-0.008-0.062-0.015-0.093-0.022c-0.011-0.002-0.021-0.005-0.032-0.007
		c-0.039-0.009-0.079-0.016-0.119-0.024c-0.011-0.001-0.022-0.003-0.034-0.005c-0.032-0.005-0.064-0.011-0.096-0.016
		c-0.011-0.002-0.023-0.003-0.034-0.005c-0.041-0.006-0.081-0.011-0.122-0.015c-0.009-0.001-0.018-0.001-0.028-0.003
		c-0.033-0.003-0.067-0.006-0.101-0.008c-0.012-0.001-0.024-0.002-0.036-0.003c-0.042-0.002-0.083-0.005-0.124-0.007
		c-0.006,0-0.012,0-0.018,0c-0.036,0-0.073-0.002-0.109-0.002c-0.006,0-0.013,0-0.02,0c-0.009,0-0.017,0-0.025,0
		c-0.015,0-0.029,0-0.044,0.001c-0.023,0-0.045,0-0.068,0.001c-0.007,0-0.013,0-0.02,0c-0.419,0.017-0.833,0.099-1.224,0.241
		c-0.004,0.001-0.008,0.002-0.011,0.004c-0.021,0.008-0.042,0.015-0.063,0.023c-0.006,0.002-0.012,0.005-0.019,0.007
		c-0.007,0.002-0.013,0.004-0.02,0.008c-0.014,0.005-0.029,0.011-0.043,0.017c-0.014,0.006-0.029,0.012-0.044,0.018
		c-0.005,0.002-0.01,0.004-0.014,0.006c-0.011,0.005-0.022,0.01-0.033,0.014c-0.023,0.011-0.047,0.021-0.071,0.033
		c-0.007,0.002-0.014,0.006-0.021,0.01c-0.061,0.028-0.121,0.058-0.179,0.089c-0.001,0-0.003,0.001-0.006,0.002
		c-0.025,0.014-0.051,0.028-0.076,0.042c-0.004,0.002-0.008,0.003-0.012,0.006c-0.024,0.014-0.048,0.028-0.072,0.042
		c-0.005,0.002-0.01,0.005-0.015,0.008c-0.021,0.013-0.044,0.026-0.065,0.04c-0.007,0.004-0.014,0.009-0.02,0.012
		c-0.02,0.013-0.039,0.025-0.058,0.038c-0.008,0.006-0.017,0.011-0.026,0.017c-0.016,0.011-0.033,0.022-0.049,0.033
		c-0.011,0.008-0.022,0.015-0.033,0.023c-0.014,0.01-0.028,0.02-0.042,0.03c-0.013,0.009-0.026,0.019-0.039,0.028
		c-0.012,0.008-0.023,0.018-0.036,0.026c-0.015,0.011-0.029,0.021-0.043,0.033c-0.011,0.008-0.021,0.017-0.032,0.025
		c-0.015,0.011-0.03,0.023-0.045,0.036c-0.01,0.008-0.02,0.017-0.03,0.025c-0.015,0.013-0.03,0.025-0.044,0.038
		c-0.011,0.009-0.021,0.018-0.031,0.027c-0.014,0.013-0.028,0.025-0.042,0.038c-0.011,0.01-0.021,0.02-0.032,0.029
		c-0.013,0.012-0.026,0.024-0.04,0.037c-0.012,0.011-0.022,0.021-0.034,0.033c-0.012,0.012-0.024,0.024-0.036,0.035
		c-0.011,0.011-0.023,0.023-0.036,0.036c-0.011,0.011-0.021,0.022-0.032,0.033c-0.012,0.013-0.024,0.026-0.036,0.039
		c-0.01,0.011-0.02,0.021-0.03,0.032c-0.013,0.014-0.025,0.027-0.037,0.041c-0.01,0.011-0.019,0.022-0.028,0.033
		c-0.012,0.013-0.024,0.027-0.036,0.041c-0.009,0.011-0.019,0.022-0.028,0.033c-0.012,0.014-0.023,0.028-0.035,0.042
		c-0.009,0.011-0.018,0.023-0.027,0.034c-0.011,0.014-0.022,0.028-0.033,0.042c-0.009,0.011-0.018,0.023-0.027,0.036
		c-0.011,0.013-0.021,0.027-0.031,0.041c-0.01,0.013-0.02,0.026-0.028,0.039c-0.01,0.013-0.019,0.026-0.028,0.039
		c-0.01,0.015-0.02,0.03-0.03,0.045c-0.009,0.012-0.016,0.024-0.025,0.036c-0.011,0.017-0.022,0.034-0.033,0.05
		c-0.007,0.011-0.013,0.021-0.02,0.031c-0.013,0.021-0.026,0.042-0.039,0.063c-0.004,0.006-0.008,0.014-0.013,0.021
		c-0.068,0.114-0.132,0.234-0.19,0.358c0,0.002-0.001,0.003-0.002,0.005L34.413,42.79l-4.483,9.615L10.403,94.282
		c-0.002,0.004-0.003,0.008-0.005,0.012c0.659-1.356,2.048-2.291,3.657-2.291h6.378L34.414,62.02l4.483-9.615l15.876-34.046
		l3.683-7.897C58.987,9.326,58.946,8.071,58.453,7.019z"/>
	<path fill="#02E900" d="M12.413,99.545c-0.001-0.001-0.003-0.002-0.005-0.002C12.409,99.544,12.411,99.545,12.413,99.545z"/>
	<path fill="#02E900" d="M12.71,99.672c-0.004-0.001-0.007-0.002-0.011-0.004C12.702,99.669,12.706,99.67,12.71,99.672z"/>
	<path fill="#02E900" d="M13.348,99.855c0.026,0.005,0.053,0.011,0.08,0.016c0.001,0,0.003,0,0.004,0c0.002,0,0.003,0,0.005,0
		c-0.031-0.005-0.063-0.011-0.093-0.018C13.345,99.854,13.346,99.855,13.348,99.855z"/>
	<path fill="#02E900" d="M13.631,99.902c-0.019-0.002-0.038-0.005-0.056-0.008C13.594,99.897,13.613,99.899,13.631,99.902z"/>
	<path fill="#02E900" d="M13.259,99.836c0.017,0.004,0.035,0.007,0.051,0.011c0.002,0.001,0.004,0.001,0.006,0.001
		c-0.02-0.003-0.041-0.008-0.061-0.013C13.257,99.836,13.258,99.836,13.259,99.836z"/>
	<path fill="#02E900" d="M13.011,99.772c0,0-0.002,0-0.003,0C13.009,99.772,13.01,99.772,13.011,99.772z"/>
	<path fill="#02E900" d="M13.167,99.815c0.007,0.002,0.014,0.003,0.021,0.005c0.001,0,0.003,0,0.004,0.001
		c-0.008-0.002-0.018-0.004-0.026-0.006C13.166,99.815,13.166,99.815,13.167,99.815z"/>
	
		<linearGradient id="SVGID_4_" gradientUnits="userSpaceOnUse" x1="-2349.4453" y1="-2059.1367" x2="-2349.3062" y2="-2059.1367" gradientTransform="matrix(1 0 0 1 2404.7998 2159.0195)">
		<stop  offset="0" style="stop-color:#00CC00"/>
		<stop  offset="1" style="stop-color:#339933"/>
	</linearGradient>
	<path fill="url(#SVGID_4_)" d="M55.494,99.872c-0.046,0.008-0.093,0.015-0.139,0.022C55.402,99.888,55.448,99.88,55.494,99.872z"/>
	
		<linearGradient id="SVGID_5_" gradientUnits="userSpaceOnUse" x1="-2349.6121" y1="-2059.1113" x2="-2349.5007" y2="-2059.1113" gradientTransform="matrix(1 0 0 1 2404.7998 2159.0195)">
		<stop  offset="0" style="stop-color:#00CC00"/>
		<stop  offset="1" style="stop-color:#339933"/>
	</linearGradient>
	<path fill="url(#SVGID_5_)" d="M55.299,99.902c-0.038,0.004-0.075,0.009-0.111,0.012C55.225,99.911,55.261,99.906,55.299,99.902z"
		/>
	
		<linearGradient id="SVGID_6_" gradientUnits="userSpaceOnUse" x1="-2346.3708" y1="-2061.395" x2="-2346.3418" y2="-2061.395" gradientTransform="matrix(1 0 0 1 2404.7998 2159.0195)">
		<stop  offset="0" style="stop-color:#00CC00"/>
		<stop  offset="1" style="stop-color:#339933"/>
	</linearGradient>
	<path fill="url(#SVGID_6_)" d="M58.458,97.594c-0.009,0.021-0.019,0.042-0.029,0.062C58.439,97.635,58.448,97.615,58.458,97.594z"
		/>
	
		<linearGradient id="SVGID_7_" gradientUnits="userSpaceOnUse" x1="-2346.3271" y1="-2061.4888" x2="-2346.2986" y2="-2061.4888" gradientTransform="matrix(1 0 0 1 2404.7998 2159.0195)">
		<stop  offset="0" style="stop-color:#00CC00"/>
		<stop  offset="1" style="stop-color:#339933"/>
	</linearGradient>
	<path fill="url(#SVGID_7_)" d="M58.501,97.499c-0.009,0.021-0.019,0.043-0.028,0.064C58.483,97.542,58.492,97.52,58.501,97.499z"/>
	
		<linearGradient id="SVGID_8_" gradientUnits="userSpaceOnUse" x1="-2346.2859" y1="-2061.5854" x2="-2346.2561" y2="-2061.5854" gradientTransform="matrix(1 0 0 1 2404.7998 2159.0195)">
		<stop  offset="0" style="stop-color:#00CC00"/>
		<stop  offset="1" style="stop-color:#339933"/>
	</linearGradient>
	<path fill="url(#SVGID_8_)" d="M58.544,97.398c-0.01,0.024-0.02,0.048-0.03,0.071C58.524,97.446,58.534,97.423,58.544,97.398z"/>
	
		<linearGradient id="SVGID_9_" gradientUnits="userSpaceOnUse" x1="-2346.5159" y1="-2061.1221" x2="-2346.4836" y2="-2061.1221" gradientTransform="matrix(1 0 0 1 2404.7998 2159.0195)">
		<stop  offset="0" style="stop-color:#00CC00"/>
		<stop  offset="1" style="stop-color:#339933"/>
	</linearGradient>
	<path fill="url(#SVGID_9_)" d="M58.316,97.869c-0.01,0.02-0.021,0.039-0.032,0.057C58.295,97.907,58.306,97.888,58.316,97.869z"/>
	
		<linearGradient id="SVGID_10_" gradientUnits="userSpaceOnUse" x1="-2346.2468" y1="-2061.687" x2="-2346.2146" y2="-2061.687" gradientTransform="matrix(1 0 0 1 2404.7998 2159.0195)">
		<stop  offset="0" style="stop-color:#00CC00"/>
		<stop  offset="1" style="stop-color:#339933"/>
	</linearGradient>
	<path fill="url(#SVGID_10_)" d="M58.585,97.291c-0.01,0.028-0.021,0.056-0.032,0.084C58.564,97.347,58.575,97.319,58.585,97.291z"
		/>
	
		<linearGradient id="SVGID_11_" gradientUnits="userSpaceOnUse" x1="-2346.4172" y1="-2061.3018" x2="-2346.387" y2="-2061.3018" gradientTransform="matrix(1 0 0 1 2404.7998 2159.0195)">
		<stop  offset="0" style="stop-color:#00CC00"/>
		<stop  offset="1" style="stop-color:#339933"/>
	</linearGradient>
	<path fill="url(#SVGID_11_)" d="M58.413,97.688c-0.01,0.02-0.02,0.04-0.03,0.059C58.393,97.728,58.403,97.707,58.413,97.688z"/>
	
		<linearGradient id="SVGID_12_" gradientUnits="userSpaceOnUse" x1="-2346.4656" y1="-2061.2109" x2="-2346.4338" y2="-2061.2109" gradientTransform="matrix(1 0 0 1 2404.7998 2159.0195)">
		<stop  offset="0" style="stop-color:#00CC00"/>
		<stop  offset="1" style="stop-color:#339933"/>
	</linearGradient>
	<path fill="url(#SVGID_12_)" d="M58.366,97.779c-0.01,0.02-0.021,0.039-0.032,0.058C58.345,97.818,58.356,97.799,58.366,97.779z"/>
	
		<linearGradient id="SVGID_13_" gradientUnits="userSpaceOnUse" x1="-2346.2097" y1="-2061.8398" x2="-2346.1423" y2="-2061.8398" gradientTransform="matrix(1 0 0 1 2404.7998 2159.0195)">
		<stop  offset="0" style="stop-color:#00CC00"/>
		<stop  offset="1" style="stop-color:#339933"/>
	</linearGradient>
	<path fill="url(#SVGID_13_)" d="M58.657,97.08c-0.021,0.067-0.043,0.133-0.067,0.199C58.614,97.213,58.636,97.146,58.657,97.08z"/>
	
		<linearGradient id="SVGID_14_" gradientUnits="userSpaceOnUse" x1="-2346.0334" y1="-2062.4136" x2="-2346.0212" y2="-2062.4136" gradientTransform="matrix(1 0 0 1 2404.7998 2159.0195)">
		<stop  offset="0" style="stop-color:#00CC00"/>
		<stop  offset="1" style="stop-color:#339933"/>
	</linearGradient>
	<path fill="url(#SVGID_14_)" d="M58.779,96.573c-0.003,0.022-0.008,0.044-0.012,0.066C58.771,96.617,58.775,96.595,58.779,96.573z"
		/>
	
		<linearGradient id="SVGID_15_" gradientUnits="userSpaceOnUse" x1="-2346.0544" y1="-2062.3096" x2="-2346.0403" y2="-2062.3096" gradientTransform="matrix(1 0 0 1 2404.7998 2159.0195)">
		<stop  offset="0" style="stop-color:#00CC00"/>
		<stop  offset="1" style="stop-color:#339933"/>
	</linearGradient>
	<path fill="url(#SVGID_15_)" d="M58.76,96.676c-0.004,0.023-0.009,0.045-0.014,0.068C58.75,96.722,58.755,96.699,58.76,96.676z"/>
	
		<linearGradient id="SVGID_16_" gradientUnits="userSpaceOnUse" x1="-2346.0144" y1="-2062.5181" x2="-2346.0042" y2="-2062.5181" gradientTransform="matrix(1 0 0 1 2404.7998 2159.0195)">
		<stop  offset="0" style="stop-color:#00CC00"/>
		<stop  offset="1" style="stop-color:#339933"/>
	</linearGradient>
	<path fill="url(#SVGID_16_)" d="M58.796,96.469c-0.004,0.022-0.007,0.044-0.01,0.065C58.789,96.513,58.792,96.491,58.796,96.469z"
		/>
	
		<linearGradient id="SVGID_17_" gradientUnits="userSpaceOnUse" x1="-2346.1399" y1="-2061.9932" x2="-2346.1135" y2="-2061.9932" gradientTransform="matrix(1 0 0 1 2404.7998 2159.0195)">
		<stop  offset="0" style="stop-color:#00CC00"/>
		<stop  offset="1" style="stop-color:#339933"/>
	</linearGradient>
	<path fill="url(#SVGID_17_)" d="M58.686,96.981c-0.008,0.03-0.018,0.06-0.026,0.09C58.669,97.041,58.678,97.011,58.686,96.981z"/>
	
		<linearGradient id="SVGID_18_" gradientUnits="userSpaceOnUse" x1="-2346.5686" y1="-2061.0342" x2="-2346.5339" y2="-2061.0342" gradientTransform="matrix(1 0 0 1 2404.7998 2159.0195)">
		<stop  offset="0" style="stop-color:#00CC00"/>
		<stop  offset="1" style="stop-color:#339933"/>
	</linearGradient>
	<path fill="url(#SVGID_18_)" d="M58.266,97.957c-0.012,0.02-0.023,0.038-0.035,0.056C58.243,97.995,58.254,97.976,58.266,97.957z"
		/>
	
		<linearGradient id="SVGID_19_" gradientUnits="userSpaceOnUse" x1="-2346.0789" y1="-2062.2061" x2="-2346.0623" y2="-2062.2061" gradientTransform="matrix(1 0 0 1 2404.7998 2159.0195)">
		<stop  offset="0" style="stop-color:#00CC00"/>
		<stop  offset="1" style="stop-color:#339933"/>
	</linearGradient>
	<path fill="url(#SVGID_19_)" d="M58.738,96.779c-0.005,0.023-0.011,0.047-0.017,0.07C58.727,96.826,58.732,96.802,58.738,96.779z"
		/>
	
		<linearGradient id="SVGID_20_" gradientUnits="userSpaceOnUse" x1="-2346.1064" y1="-2062.1016" x2="-2346.0862" y2="-2062.1016" gradientTransform="matrix(1 0 0 1 2404.7998 2159.0195)">
		<stop  offset="0" style="stop-color:#00CC00"/>
		<stop  offset="1" style="stop-color:#339933"/>
	</linearGradient>
	<path fill="url(#SVGID_20_)" d="M58.714,96.88c-0.007,0.025-0.013,0.05-0.02,0.076C58.7,96.931,58.707,96.905,58.714,96.88z"/>
	
		<linearGradient id="SVGID_21_" gradientUnits="userSpaceOnUse" x1="-2346.9617" y1="-2060.5205" x2="-2346.8835" y2="-2060.5205" gradientTransform="matrix(1 0 0 1 2404.7998 2159.0195)">
		<stop  offset="0" style="stop-color:#00CC00"/>
		<stop  offset="1" style="stop-color:#339933"/>
	</linearGradient>
	<path fill="url(#SVGID_21_)" d="M57.916,98.453c-0.025,0.032-0.051,0.062-0.078,0.092C57.865,98.515,57.891,98.485,57.916,98.453z"
		/>
	
		<linearGradient id="SVGID_22_" gradientUnits="userSpaceOnUse" x1="-2346.7205" y1="-2060.8506" x2="-2346.6213" y2="-2060.8506" gradientTransform="matrix(1 0 0 1 2404.7998 2159.0195)">
		<stop  offset="0" style="stop-color:#00CC00"/>
		<stop  offset="1" style="stop-color:#339933"/>
	</linearGradient>
	<path fill="url(#SVGID_22_)" d="M58.178,98.097c-0.032,0.049-0.065,0.097-0.099,0.145C58.113,98.194,58.146,98.146,58.178,98.097z"
		/>
	
		<linearGradient id="SVGID_23_" gradientUnits="userSpaceOnUse" x1="-2348.1292" y1="-2059.626" x2="-2347.8694" y2="-2059.626" gradientTransform="matrix(1 0 0 1 2404.7998 2159.0195)">
		<stop  offset="0" style="stop-color:#00CC00"/>
		<stop  offset="1" style="stop-color:#339933"/>
	</linearGradient>
	<path fill="url(#SVGID_23_)" d="M56.93,99.319c-0.084,0.053-0.171,0.103-0.26,0.15C56.76,99.422,56.846,99.372,56.93,99.319z"/>
	
		<linearGradient id="SVGID_24_" gradientUnits="userSpaceOnUse" x1="-2348.5681" y1="-2059.4131" x2="-2348.2825" y2="-2059.4131" gradientTransform="matrix(1 0 0 1 2404.7998 2159.0195)">
		<stop  offset="0" style="stop-color:#00CC00"/>
		<stop  offset="1" style="stop-color:#339933"/>
	</linearGradient>
	<path fill="url(#SVGID_24_)" d="M56.517,99.545c-0.094,0.044-0.189,0.085-0.286,0.123C56.328,99.63,56.424,99.59,56.517,99.545z"/>
	
		<linearGradient id="SVGID_25_" gradientUnits="userSpaceOnUse" x1="-2348.2771" y1="-2059.5103" x2="-2348.1423" y2="-2059.5103" gradientTransform="matrix(1 0 0 1 2404.7998 2159.0195)">
		<stop  offset="0" style="stop-color:#00CC00"/>
		<stop  offset="1" style="stop-color:#339933"/>
	</linearGradient>
	<path fill="url(#SVGID_25_)" d="M56.657,99.476c-0.044,0.023-0.089,0.046-0.135,0.067C56.569,99.521,56.613,99.499,56.657,99.476z"
		/>
	
		<linearGradient id="SVGID_26_" gradientUnits="userSpaceOnUse" x1="-2349.1257" y1="-2059.1914" x2="-2349.0613" y2="-2059.1914" gradientTransform="matrix(1 0 0 1 2404.7998 2159.0195)">
		<stop  offset="0" style="stop-color:#00CC00"/>
		<stop  offset="1" style="stop-color:#339933"/>
	</linearGradient>
	<path fill="url(#SVGID_26_)" d="M55.739,99.821c-0.022,0.005-0.043,0.01-0.064,0.015C55.696,99.831,55.717,99.826,55.739,99.821z"
		/>
	
		<linearGradient id="SVGID_27_" gradientUnits="userSpaceOnUse" x1="-2349.0354" y1="-2059.2261" x2="-2348.8806" y2="-2059.2261" gradientTransform="matrix(1 0 0 1 2404.7998 2159.0195)">
		<stop  offset="0" style="stop-color:#00CC00"/>
		<stop  offset="1" style="stop-color:#339933"/>
	</linearGradient>
	<path fill="url(#SVGID_27_)" d="M55.919,99.772c-0.051,0.015-0.103,0.029-0.155,0.042C55.816,99.801,55.868,99.788,55.919,99.772z"
		/>
	
		<linearGradient id="SVGID_28_" gradientUnits="userSpaceOnUse" x1="-2348.8777" y1="-2059.2979" x2="-2348.5793" y2="-2059.2979" gradientTransform="matrix(1 0 0 1 2404.7998 2159.0195)">
		<stop  offset="0" style="stop-color:#00CC00"/>
		<stop  offset="1" style="stop-color:#339933"/>
	</linearGradient>
	<path fill="url(#SVGID_28_)" d="M56.22,99.672c-0.098,0.038-0.197,0.071-0.298,0.1C56.024,99.743,56.122,99.709,56.22,99.672z"/>
	
		<linearGradient id="SVGID_29_" gradientUnits="userSpaceOnUse" x1="-2347.8354" y1="-2059.7266" x2="-2347.8196" y2="-2059.7266" gradientTransform="matrix(1 0 0 1 2404.7998 2159.0195)">
		<stop  offset="0" style="stop-color:#00CC00"/>
		<stop  offset="1" style="stop-color:#339933"/>
	</linearGradient>
	<path fill="url(#SVGID_29_)" d="M56.98,99.288c-0.005,0.003-0.01,0.007-0.016,0.011C56.97,99.295,56.975,99.291,56.98,99.288z"/>
	
		<linearGradient id="SVGID_30_" gradientUnits="userSpaceOnUse" x1="-2349.2124" y1="-2059.168" x2="-2349.186" y2="-2059.168" gradientTransform="matrix(1 0 0 1 2404.7998 2159.0195)">
		<stop  offset="0" style="stop-color:#00CC00"/>
		<stop  offset="1" style="stop-color:#339933"/>
	</linearGradient>
	<path fill="url(#SVGID_30_)" d="M55.614,99.849c-0.009,0.002-0.018,0.004-0.026,0.005C55.596,99.853,55.605,99.851,55.614,99.849z"
		/>
	
		<linearGradient id="SVGID_31_" gradientUnits="userSpaceOnUse" x1="-2347.0955" y1="-2060.3555" x2="-2347.0432" y2="-2060.3555" gradientTransform="matrix(1 0 0 1 2404.7998 2159.0195)">
		<stop  offset="0" style="stop-color:#00CC00"/>
		<stop  offset="1" style="stop-color:#339933"/>
	</linearGradient>
	<path fill="url(#SVGID_31_)" d="M57.757,98.637c-0.018,0.018-0.035,0.037-0.052,0.055C57.722,98.673,57.739,98.655,57.757,98.637z"
		/>
	
		<linearGradient id="SVGID_32_" gradientUnits="userSpaceOnUse" x1="-2346.8367" y1="-2060.6807" x2="-2346.7502" y2="-2060.6807" gradientTransform="matrix(1 0 0 1 2404.7998 2159.0195)">
		<stop  offset="0" style="stop-color:#00CC00"/>
		<stop  offset="1" style="stop-color:#339933"/>
	</linearGradient>
	<path fill="url(#SVGID_32_)" d="M58.05,98.282c-0.029,0.038-0.058,0.076-0.086,0.113C57.992,98.358,58.021,98.32,58.05,98.282z"/>
	
		<linearGradient id="SVGID_33_" gradientUnits="userSpaceOnUse" x1="-2347.6047" y1="-2059.9268" x2="-2347.4866" y2="-2059.9268" gradientTransform="matrix(1 0 0 1 2404.7998 2159.0195)">
		<stop  offset="0" style="stop-color:#00CC00"/>
		<stop  offset="1" style="stop-color:#339933"/>
	</linearGradient>
	<path fill="url(#SVGID_33_)" d="M57.313,99.047c-0.039,0.032-0.078,0.062-0.118,0.091C57.235,99.109,57.274,99.079,57.313,99.047z"
		/>
	
		<linearGradient id="SVGID_34_" gradientUnits="userSpaceOnUse" x1="-2347.7952" y1="-2059.8008" x2="-2347.6418" y2="-2059.8008" gradientTransform="matrix(1 0 0 1 2404.7998 2159.0195)">
		<stop  offset="0" style="stop-color:#00CC00"/>
		<stop  offset="1" style="stop-color:#339933"/>
	</linearGradient>
	<path fill="url(#SVGID_34_)" d="M57.158,99.166c-0.051,0.036-0.101,0.072-0.153,0.106C57.056,99.237,57.108,99.203,57.158,99.166z"
		/>
	
		<linearGradient id="SVGID_35_" gradientUnits="userSpaceOnUse" x1="-2347.4163" y1="-2060.0635" x2="-2347.3372" y2="-2060.0635" gradientTransform="matrix(1 0 0 1 2404.7998 2159.0195)">
		<stop  offset="0" style="stop-color:#00CC00"/>
		<stop  offset="1" style="stop-color:#339933"/>
	</linearGradient>
	<path fill="url(#SVGID_35_)" d="M57.463,98.922c-0.026,0.023-0.052,0.046-0.079,0.068C57.41,98.968,57.436,98.945,57.463,98.922z"
		/>
	
		<linearGradient id="SVGID_36_" gradientUnits="userSpaceOnUse" x1="-2347.2429" y1="-2060.2075" x2="-2347.1917" y2="-2060.2075" gradientTransform="matrix(1 0 0 1 2404.7998 2159.0195)">
		<stop  offset="0" style="stop-color:#00CC00"/>
		<stop  offset="1" style="stop-color:#339933"/>
	</linearGradient>
	<path fill="url(#SVGID_36_)" d="M57.608,98.788c-0.017,0.017-0.034,0.033-0.051,0.049C57.574,98.82,57.591,98.804,57.608,98.788z"
		/>
	
		<linearGradient id="SVGID_37_" gradientUnits="userSpaceOnUse" x1="-2346.3679" y1="-2064.8813" x2="-2346.3401" y2="-2064.8813" gradientTransform="matrix(1 0 0 1 2404.7998 2159.0195)">
		<stop  offset="0" style="stop-color:#00CC00"/>
		<stop  offset="1" style="stop-color:#339933"/>
	</linearGradient>
	<path fill="url(#SVGID_37_)" d="M58.432,94.109c0.01,0.019,0.019,0.039,0.028,0.059C58.451,94.147,58.442,94.128,58.432,94.109z"/>
	
		<linearGradient id="SVGID_38_" gradientUnits="userSpaceOnUse" x1="-2346.0964" y1="-2064.1484" x2="-2346.0803" y2="-2064.1484" gradientTransform="matrix(1 0 0 1 2404.7998 2159.0195)">
		<stop  offset="0" style="stop-color:#00CC00"/>
		<stop  offset="1" style="stop-color:#339933"/>
	</linearGradient>
	<path fill="url(#SVGID_38_)" d="M58.703,94.839c0.005,0.021,0.011,0.042,0.016,0.064C58.714,94.881,58.709,94.86,58.703,94.839z"/>
	
		<linearGradient id="SVGID_39_" gradientUnits="userSpaceOnUse" x1="-2345.9827" y1="-2063.5547" x2="-2345.9827" y2="-2063.5547" gradientTransform="matrix(1 0 0 1 2404.7998 2159.0195)">
		<stop  offset="0" style="stop-color:#00CC00"/>
		<stop  offset="1" style="stop-color:#339933"/>
	</linearGradient>
	<path fill="url(#SVGID_39_)" d="M58.817,95.463c0,0.001,0,0.002,0,0.003C58.817,95.466,58.817,95.464,58.817,95.463z"/>
	
		<linearGradient id="SVGID_40_" gradientUnits="userSpaceOnUse" x1="-2346.1252" y1="-2064.252" x2="-2346.1074" y2="-2064.252" gradientTransform="matrix(1 0 0 1 2404.7998 2159.0195)">
		<stop  offset="0" style="stop-color:#00CC00"/>
		<stop  offset="1" style="stop-color:#339933"/>
	</linearGradient>
	<path fill="url(#SVGID_40_)" d="M58.675,94.737c0.006,0.021,0.012,0.041,0.018,0.062C58.686,94.778,58.681,94.757,58.675,94.737z"
		/>
	
		<linearGradient id="SVGID_41_" gradientUnits="userSpaceOnUse" x1="-2345.989" y1="-2062.7139" x2="-2345.9802" y2="-2062.7139" gradientTransform="matrix(1 0 0 1 2404.7998 2159.0195)">
		<stop  offset="0" style="stop-color:#00CC00"/>
		<stop  offset="1" style="stop-color:#339933"/>
	</linearGradient>
	<path fill="url(#SVGID_41_)" d="M58.82,96.262c-0.002,0.029-0.005,0.058-0.009,0.087C58.814,96.32,58.817,96.292,58.82,96.262z"/>
	
		<linearGradient id="SVGID_42_" gradientUnits="userSpaceOnUse" x1="-2345.9954" y1="-2063.6602" x2="-2345.9939" y2="-2063.6602" gradientTransform="matrix(1 0 0 1 2404.7998 2159.0195)">
		<stop  offset="0" style="stop-color:#00CC00"/>
		<stop  offset="1" style="stop-color:#339933"/>
	</linearGradient>
	<path fill="url(#SVGID_42_)" d="M58.804,95.357c0,0.002,0,0.004,0.001,0.005C58.805,95.361,58.804,95.359,58.804,95.357z"/>
	
		<linearGradient id="SVGID_43_" gradientUnits="userSpaceOnUse" x1="-2346.157" y1="-2064.355" x2="-2346.1377" y2="-2064.355" gradientTransform="matrix(1 0 0 1 2404.7998 2159.0195)">
		<stop  offset="0" style="stop-color:#00CC00"/>
		<stop  offset="1" style="stop-color:#339933"/>
	</linearGradient>
	<path fill="url(#SVGID_43_)" d="M58.643,94.634c0.007,0.021,0.014,0.041,0.02,0.061C58.656,94.675,58.65,94.655,58.643,94.634z"/>
	
		<linearGradient id="SVGID_44_" gradientUnits="userSpaceOnUse" x1="-2346.1912" y1="-2064.4561" x2="-2346.1699" y2="-2064.4561" gradientTransform="matrix(1 0 0 1 2404.7998 2159.0195)">
		<stop  offset="0" style="stop-color:#00CC00"/>
		<stop  offset="1" style="stop-color:#339933"/>
	</linearGradient>
	<path fill="url(#SVGID_44_)" d="M58.609,94.533c0.007,0.02,0.015,0.04,0.021,0.06C58.623,94.573,58.616,94.553,58.609,94.533z"/>
	
		<linearGradient id="SVGID_45_" gradientUnits="userSpaceOnUse" x1="-2346.0657" y1="-2064.0557" x2="-2346.0652" y2="-2064.0557" gradientTransform="matrix(1 0 0 1 2404.7998 2159.0195)">
		<stop  offset="0" style="stop-color:#00CC00"/>
		<stop  offset="1" style="stop-color:#339933"/>
	</linearGradient>
	<path fill="url(#SVGID_45_)" d="M58.734,94.962c0,0.001,0,0.002,0,0.003C58.735,94.965,58.735,94.963,58.734,94.962z"/>
	
		<linearGradient id="SVGID_46_" gradientUnits="userSpaceOnUse" x1="-2346.281" y1="-2064.6724" x2="-2346.2419" y2="-2064.6724" gradientTransform="matrix(1 0 0 1 2404.7998 2159.0195)">
		<stop  offset="0" style="stop-color:#00CC00"/>
		<stop  offset="1" style="stop-color:#339933"/>
	</linearGradient>
	<path fill="url(#SVGID_46_)" d="M58.519,94.299c0.014,0.032,0.026,0.064,0.039,0.096C58.545,94.363,58.532,94.331,58.519,94.299z"
		/>
	
		<linearGradient id="SVGID_47_" gradientUnits="userSpaceOnUse" x1="-2346.2292" y1="-2064.5586" x2="-2346.2046" y2="-2064.5586" gradientTransform="matrix(1 0 0 1 2404.7998 2159.0195)">
		<stop  offset="0" style="stop-color:#00CC00"/>
		<stop  offset="1" style="stop-color:#339933"/>
	</linearGradient>
	<path fill="url(#SVGID_47_)" d="M58.571,94.428c0.008,0.022,0.017,0.043,0.024,0.065C58.587,94.472,58.578,94.45,58.571,94.428z"/>
	
		<linearGradient id="SVGID_48_" gradientUnits="userSpaceOnUse" x1="-2346.0364" y1="-2063.8682" x2="-2346.0193" y2="-2063.8682" gradientTransform="matrix(1 0 0 1 2404.7998 2159.0195)">
		<stop  offset="0" style="stop-color:#00CC00"/>
		<stop  offset="1" style="stop-color:#339933"/>
	</linearGradient>
	<path fill="url(#SVGID_48_)" d="M58.763,95.104c0.006,0.031,0.012,0.062,0.017,0.094C58.776,95.166,58.77,95.135,58.763,95.104z"/>
	
		<linearGradient id="SVGID_49_" gradientUnits="userSpaceOnUse" x1="-2346.323" y1="-2064.7813" x2="-2346.2917" y2="-2064.7813" gradientTransform="matrix(1 0 0 1 2404.7998 2159.0195)">
		<stop  offset="0" style="stop-color:#00CC00"/>
		<stop  offset="1" style="stop-color:#339933"/>
	</linearGradient>
	<path fill="url(#SVGID_49_)" d="M58.477,94.204c0.011,0.023,0.021,0.047,0.031,0.07C58.497,94.25,58.488,94.227,58.477,94.204z"/>
	<path fill="#02E900" d="M13.742,99.914c0.135,0.014,0.269,0.021,0.402,0.021c0.018,0,0.037-0.001,0.055-0.001h-0.052
		C14.011,99.934,13.876,99.928,13.742,99.914z"/>
	
		<linearGradient id="SVGID_50_" gradientUnits="userSpaceOnUse" x1="-2346.0803" y1="-2064.0869" x2="-2346.0657" y2="-2064.0869" gradientTransform="matrix(1 0 0 1 2404.7998 2159.0195)">
		<stop  offset="0" style="stop-color:#00CC00"/>
		<stop  offset="1" style="stop-color:#339933"/>
	</linearGradient>
	<path fill="url(#SVGID_50_)" d="M58.73,94.947c-0.001-0.006-0.003-0.013-0.004-0.02c-0.002-0.008-0.004-0.016-0.007-0.024
		c0.005,0.019,0.01,0.039,0.015,0.059C58.733,94.957,58.732,94.952,58.73,94.947z"/>
	
		<linearGradient id="SVGID_51_" gradientUnits="userSpaceOnUse" x1="-2347.4866" y1="-2060.001" x2="-2347.4163" y2="-2060.001" gradientTransform="matrix(1 0 0 1 2404.7998 2159.0195)">
		<stop  offset="0" style="stop-color:#00CC00"/>
		<stop  offset="1" style="stop-color:#339933"/>
	</linearGradient>
	<path fill="url(#SVGID_51_)" d="M57.384,98.99c-0.023,0.02-0.047,0.039-0.07,0.057C57.337,99.029,57.361,99.01,57.384,98.99z"/>
	
		<linearGradient id="SVGID_52_" gradientUnits="userSpaceOnUse" x1="-2347.3374" y1="-2060.1401" x2="-2347.2432" y2="-2060.1401" gradientTransform="matrix(1 0 0 1 2404.7998 2159.0195)">
		<stop  offset="0" style="stop-color:#00CC00"/>
		<stop  offset="1" style="stop-color:#339933"/>
	</linearGradient>
	<path fill="url(#SVGID_52_)" d="M57.557,98.836c-0.031,0.029-0.063,0.058-0.094,0.086C57.494,98.895,57.526,98.866,57.557,98.836z"
		/>
	
		<linearGradient id="SVGID_53_" gradientUnits="userSpaceOnUse" x1="-2346.1074" y1="-2064.2012" x2="-2346.0964" y2="-2064.2012" gradientTransform="matrix(1 0 0 1 2404.7998 2159.0195)">
		<stop  offset="0" style="stop-color:#00CC00"/>
		<stop  offset="1" style="stop-color:#339933"/>
	</linearGradient>
	<path fill="url(#SVGID_53_)" d="M58.693,94.798c0.003,0.013,0.007,0.026,0.011,0.041C58.699,94.825,58.696,94.812,58.693,94.798z"
		/>
	
		<linearGradient id="SVGID_54_" gradientUnits="userSpaceOnUse" x1="-2348.1423" y1="-2059.5474" x2="-2348.1292" y2="-2059.5474" gradientTransform="matrix(1 0 0 1 2404.7998 2159.0195)">
		<stop  offset="0" style="stop-color:#00CC00"/>
		<stop  offset="1" style="stop-color:#339933"/>
	</linearGradient>
	<path fill="url(#SVGID_54_)" d="M56.671,99.469c-0.004,0.002-0.009,0.004-0.013,0.007C56.662,99.473,56.666,99.471,56.671,99.469z"
		/>
	
		<linearGradient id="SVGID_55_" gradientUnits="userSpaceOnUse" x1="-2346.1702" y1="-2064.4058" x2="-2346.157" y2="-2064.4058" gradientTransform="matrix(1 0 0 1 2404.7998 2159.0195)">
		<stop  offset="0" style="stop-color:#00CC00"/>
		<stop  offset="1" style="stop-color:#339933"/>
	</linearGradient>
	<path fill="url(#SVGID_55_)" d="M58.63,94.593c0.005,0.014,0.009,0.028,0.013,0.041C58.639,94.621,58.635,94.607,58.63,94.593z"/>
	
		<linearGradient id="SVGID_56_" gradientUnits="userSpaceOnUse" x1="-2348.8809" y1="-2059.2471" x2="-2348.8777" y2="-2059.2471" gradientTransform="matrix(1 0 0 1 2404.7998 2159.0195)">
		<stop  offset="0" style="stop-color:#00CC00"/>
		<stop  offset="1" style="stop-color:#339933"/>
	</linearGradient>
	<path fill="url(#SVGID_56_)" d="M55.922,99.772c-0.001,0-0.002,0-0.003,0C55.92,99.772,55.921,99.772,55.922,99.772z"/>
	
		<linearGradient id="SVGID_57_" gradientUnits="userSpaceOnUse" x1="-2348.5793" y1="-2059.3496" x2="-2348.5681" y2="-2059.3496" gradientTransform="matrix(1 0 0 1 2404.7998 2159.0195)">
		<stop  offset="0" style="stop-color:#00CC00"/>
		<stop  offset="1" style="stop-color:#339933"/>
	</linearGradient>
	<path fill="url(#SVGID_57_)" d="M56.232,99.668c-0.004,0.001-0.007,0.002-0.011,0.004C56.224,99.67,56.228,99.669,56.232,99.668z"
		/>
	
		<linearGradient id="SVGID_58_" gradientUnits="userSpaceOnUse" x1="-2346.2048" y1="-2064.5059" x2="-2346.1914" y2="-2064.5059" gradientTransform="matrix(1 0 0 1 2404.7998 2159.0195)">
		<stop  offset="0" style="stop-color:#00CC00"/>
		<stop  offset="1" style="stop-color:#339933"/>
	</linearGradient>
	<path fill="url(#SVGID_58_)" d="M58.595,94.494c0.005,0.013,0.009,0.026,0.014,0.04C58.604,94.52,58.6,94.507,58.595,94.494z"/>
	
		<linearGradient id="SVGID_59_" gradientUnits="userSpaceOnUse" x1="-2346.1375" y1="-2064.3037" x2="-2346.125" y2="-2064.3037" gradientTransform="matrix(1 0 0 1 2404.7998 2159.0195)">
		<stop  offset="0" style="stop-color:#00CC00"/>
		<stop  offset="1" style="stop-color:#339933"/>
	</linearGradient>
	<path fill="url(#SVGID_59_)" d="M58.662,94.695c0.004,0.014,0.008,0.028,0.012,0.042C58.671,94.723,58.667,94.709,58.662,94.695z"
		/>
	
		<linearGradient id="SVGID_60_" gradientUnits="userSpaceOnUse" x1="-2347.8196" y1="-2059.7397" x2="-2347.7952" y2="-2059.7397" gradientTransform="matrix(1 0 0 1 2404.7998 2159.0195)">
		<stop  offset="0" style="stop-color:#00CC00"/>
		<stop  offset="1" style="stop-color:#339933"/>
	</linearGradient>
	<path fill="url(#SVGID_60_)" d="M56.999,99.275c0.002-0.001,0.003-0.002,0.005-0.003c-0.008,0.005-0.016,0.011-0.024,0.016
		C56.987,99.284,56.993,99.28,56.999,99.275z"/>
	
		<linearGradient id="SVGID_61_" gradientUnits="userSpaceOnUse" x1="-2347.6414" y1="-2059.8672" x2="-2347.6047" y2="-2059.8672" gradientTransform="matrix(1 0 0 1 2404.7998 2159.0195)">
		<stop  offset="0" style="stop-color:#00CC00"/>
		<stop  offset="1" style="stop-color:#339933"/>
	</linearGradient>
	<path fill="url(#SVGID_61_)" d="M57.195,99.139c-0.013,0.009-0.024,0.018-0.037,0.026C57.171,99.157,57.182,99.148,57.195,99.139z"
		/>
	
		<linearGradient id="SVGID_62_" gradientUnits="userSpaceOnUse" x1="-2347.0432" y1="-2060.4292" x2="-2346.9617" y2="-2060.4292" gradientTransform="matrix(1 0 0 1 2404.7998 2159.0195)">
		<stop  offset="0" style="stop-color:#00CC00"/>
		<stop  offset="1" style="stop-color:#339933"/>
	</linearGradient>
	<path fill="url(#SVGID_62_)" d="M57.838,98.545c-0.026,0.031-0.054,0.062-0.082,0.091C57.784,98.606,57.812,98.576,57.838,98.545z"
		/>
	
		<linearGradient id="SVGID_63_" gradientUnits="userSpaceOnUse" x1="-2347.8694" y1="-2059.7109" x2="-2347.8352" y2="-2059.7109" gradientTransform="matrix(1 0 0 1 2404.7998 2159.0195)">
		<stop  offset="0" style="stop-color:#00CC00"/>
		<stop  offset="1" style="stop-color:#339933"/>
	</linearGradient>
	<path fill="url(#SVGID_63_)" d="M56.939,99.314c0.005-0.003,0.011-0.007,0.018-0.011c0.003-0.002,0.004-0.004,0.008-0.005
		c-0.012,0.007-0.022,0.014-0.034,0.021C56.934,99.317,56.936,99.316,56.939,99.314z"/>
	
		<linearGradient id="SVGID_64_" gradientUnits="userSpaceOnUse" x1="-2348.2825" y1="-2059.4756" x2="-2348.2771" y2="-2059.4756" gradientTransform="matrix(1 0 0 1 2404.7998 2159.0195)">
		<stop  offset="0" style="stop-color:#00CC00"/>
		<stop  offset="1" style="stop-color:#339933"/>
	</linearGradient>
	<path fill="url(#SVGID_64_)" d="M56.523,99.543c-0.002,0.001-0.004,0.002-0.005,0.002C56.519,99.545,56.521,99.544,56.523,99.543z"
		/>
	
		<linearGradient id="SVGID_65_" gradientUnits="userSpaceOnUse" x1="-2346.1135" y1="-2062.0508" x2="-2346.1067" y2="-2062.0508" gradientTransform="matrix(1 0 0 1 2404.7998 2159.0195)">
		<stop  offset="0" style="stop-color:#00CC00"/>
		<stop  offset="1" style="stop-color:#339933"/>
	</linearGradient>
	<path fill="url(#SVGID_65_)" d="M58.693,96.956c-0.002,0.008-0.004,0.017-0.007,0.025C58.689,96.973,58.691,96.964,58.693,96.956z"
		/>
	
		<linearGradient id="SVGID_66_" gradientUnits="userSpaceOnUse" x1="-2346.1423" y1="-2061.9438" x2="-2346.1399" y2="-2061.9438" gradientTransform="matrix(1 0 0 1 2404.7998 2159.0195)">
		<stop  offset="0" style="stop-color:#00CC00"/>
		<stop  offset="1" style="stop-color:#339933"/>
	</linearGradient>
	<path fill="url(#SVGID_66_)" d="M58.66,97.071c-0.001,0.003-0.002,0.006-0.002,0.009C58.658,97.077,58.659,97.074,58.66,97.071z"/>
	
		<linearGradient id="SVGID_67_" gradientUnits="userSpaceOnUse" x1="-2346.0652" y1="-2063.9844" x2="-2346.0364" y2="-2063.9844" gradientTransform="matrix(1 0 0 1 2404.7998 2159.0195)">
		<stop  offset="0" style="stop-color:#00CC00"/>
		<stop  offset="1" style="stop-color:#339933"/>
	</linearGradient>
	<path fill="url(#SVGID_67_)" d="M58.759,95.076c-0.001-0.007-0.002-0.013-0.004-0.02c-0.004-0.018-0.008-0.037-0.012-0.054
		c-0.003-0.012-0.005-0.023-0.008-0.036c0.011,0.046,0.021,0.092,0.029,0.138C58.762,95.094,58.76,95.085,58.759,95.076z"/>
	
		<linearGradient id="SVGID_68_" gradientUnits="userSpaceOnUse" x1="-2346.2146" y1="-2061.7344" x2="-2346.2097" y2="-2061.7344" gradientTransform="matrix(1 0 0 1 2404.7998 2159.0195)">
		<stop  offset="0" style="stop-color:#00CC00"/>
		<stop  offset="1" style="stop-color:#339933"/>
	</linearGradient>
	<path fill="url(#SVGID_68_)" d="M58.59,97.279c-0.001,0.003-0.003,0.007-0.005,0.011C58.587,97.287,58.589,97.283,58.59,97.279z"/>
	
		<linearGradient id="SVGID_69_" gradientUnits="userSpaceOnUse" x1="-2346.2561" y1="-2061.6328" x2="-2346.2468" y2="-2061.6328" gradientTransform="matrix(1 0 0 1 2404.7998 2159.0195)">
		<stop  offset="0" style="stop-color:#00CC00"/>
		<stop  offset="1" style="stop-color:#339933"/>
	</linearGradient>
	<path fill="url(#SVGID_69_)" d="M58.553,97.375c-0.003,0.008-0.006,0.016-0.009,0.024C58.547,97.391,58.55,97.383,58.553,97.375z"
		/>
	
		<linearGradient id="SVGID_70_" gradientUnits="userSpaceOnUse" x1="-2350.0696" y1="-2059.0947" x2="-2349.6121" y2="-2059.0947" gradientTransform="matrix(1 0 0 1 2404.7998 2159.0195)">
		<stop  offset="0" style="stop-color:#00CC00"/>
		<stop  offset="1" style="stop-color:#339933"/>
	</linearGradient>
	<path fill="url(#SVGID_70_)" d="M54.73,99.934c0.018,0,0.037,0.001,0.055,0.001c0.134,0,0.268-0.008,0.402-0.021
		c-0.133,0.014-0.269,0.02-0.405,0.02H54.73z"/>
	
		<linearGradient id="SVGID_71_" gradientUnits="userSpaceOnUse" x1="-2346.2986" y1="-2061.5352" x2="-2346.2859" y2="-2061.5352" gradientTransform="matrix(1 0 0 1 2404.7998 2159.0195)">
		<stop  offset="0" style="stop-color:#00CC00"/>
		<stop  offset="1" style="stop-color:#339933"/>
	</linearGradient>
	<path fill="url(#SVGID_71_)" d="M58.514,97.47c-0.004,0.01-0.008,0.019-0.013,0.029C58.506,97.489,58.51,97.479,58.514,97.47z"/>
	
		<linearGradient id="SVGID_72_" gradientUnits="userSpaceOnUse" x1="-2346.0623" y1="-2062.2578" x2="-2346.0544" y2="-2062.2578" gradientTransform="matrix(1 0 0 1 2404.7998 2159.0195)">
		<stop  offset="0" style="stop-color:#00CC00"/>
		<stop  offset="1" style="stop-color:#339933"/>
	</linearGradient>
	<path fill="url(#SVGID_72_)" d="M58.745,96.744c-0.002,0.012-0.005,0.023-0.008,0.035C58.74,96.768,58.743,96.756,58.745,96.744z"
		/>
	
		<linearGradient id="SVGID_73_" gradientUnits="userSpaceOnUse" x1="-2346.0212" y1="-2062.4658" x2="-2346.0146" y2="-2062.4658" gradientTransform="matrix(1 0 0 1 2404.7998 2159.0195)">
		<stop  offset="0" style="stop-color:#00CC00"/>
		<stop  offset="1" style="stop-color:#339933"/>
	</linearGradient>
	<path fill="url(#SVGID_73_)" d="M58.785,96.534c-0.002,0.013-0.004,0.026-0.007,0.039C58.781,96.56,58.783,96.547,58.785,96.534z"
		/>
	
		<linearGradient id="SVGID_74_" gradientUnits="userSpaceOnUse" x1="-2346.0042" y1="-2062.6104" x2="-2345.9885" y2="-2062.6104" gradientTransform="matrix(1 0 0 1 2404.7998 2159.0195)">
		<stop  offset="0" style="stop-color:#00CC00"/>
		<stop  offset="1" style="stop-color:#339933"/>
	</linearGradient>
	<path fill="url(#SVGID_74_)" d="M58.796,96.469c0-0.006,0.001-0.012,0.002-0.018c0.002-0.017,0.004-0.032,0.006-0.048
		c0.001-0.008,0.002-0.016,0.003-0.023c0.001-0.01,0.002-0.021,0.003-0.03C58.806,96.389,58.801,96.429,58.796,96.469z"/>
	
		<linearGradient id="SVGID_75_" gradientUnits="userSpaceOnUse" x1="-2346.0403" y1="-2062.3618" x2="-2346.0332" y2="-2062.3618" gradientTransform="matrix(1 0 0 1 2404.7998 2159.0195)">
		<stop  offset="0" style="stop-color:#00CC00"/>
		<stop  offset="1" style="stop-color:#339933"/>
	</linearGradient>
	<path fill="url(#SVGID_75_)" d="M58.766,96.639c-0.002,0.013-0.004,0.025-0.007,0.037C58.762,96.665,58.764,96.652,58.766,96.639z"
		/>
	
		<linearGradient id="SVGID_76_" gradientUnits="userSpaceOnUse" x1="-2347.1917" y1="-2060.2803" x2="-2347.0957" y2="-2060.2803" gradientTransform="matrix(1 0 0 1 2404.7998 2159.0195)">
		<stop  offset="0" style="stop-color:#00CC00"/>
		<stop  offset="1" style="stop-color:#339933"/>
	</linearGradient>
	<path fill="url(#SVGID_76_)" d="M57.608,98.788c0.033-0.032,0.064-0.063,0.096-0.097C57.673,98.724,57.641,98.756,57.608,98.788z"
		/>
	
		<linearGradient id="SVGID_77_" gradientUnits="userSpaceOnUse" x1="-2346.0862" y1="-2062.1553" x2="-2346.0789" y2="-2062.1553" gradientTransform="matrix(1 0 0 1 2404.7998 2159.0195)">
		<stop  offset="0" style="stop-color:#00CC00"/>
		<stop  offset="1" style="stop-color:#339933"/>
	</linearGradient>
	<path fill="url(#SVGID_77_)" d="M58.721,96.849c-0.002,0.011-0.005,0.021-0.007,0.032C58.716,96.87,58.719,96.86,58.721,96.849z"/>
	
		<linearGradient id="SVGID_78_" gradientUnits="userSpaceOnUse" x1="-2345.9939" y1="-2063.6064" x2="-2345.9827" y2="-2063.6064" gradientTransform="matrix(1 0 0 1 2404.7998 2159.0195)">
		<stop  offset="0" style="stop-color:#00CC00"/>
		<stop  offset="1" style="stop-color:#339933"/>
	</linearGradient>
	<path fill="url(#SVGID_78_)" d="M58.806,95.362c0.004,0.034,0.008,0.067,0.011,0.101C58.814,95.43,58.809,95.396,58.806,95.362z"/>
	
		<linearGradient id="SVGID_79_" gradientUnits="userSpaceOnUse" x1="-2346.0188" y1="-2063.7422" x2="-2345.9954" y2="-2063.7422" gradientTransform="matrix(1 0 0 1 2404.7998 2159.0195)">
		<stop  offset="0" style="stop-color:#00CC00"/>
		<stop  offset="1" style="stop-color:#339933"/>
	</linearGradient>
	<path fill="url(#SVGID_79_)" d="M58.781,95.197c0.008,0.053,0.017,0.106,0.023,0.16C58.798,95.304,58.789,95.25,58.781,95.197z"/>
	
		<linearGradient id="SVGID_80_" gradientUnits="userSpaceOnUse" x1="-2346.6223" y1="-2060.9648" x2="-2346.5686" y2="-2060.9648" gradientTransform="matrix(1 0 0 1 2404.7998 2159.0195)">
		<stop  offset="0" style="stop-color:#00CC00"/>
		<stop  offset="1" style="stop-color:#339933"/>
	</linearGradient>
	<path fill="url(#SVGID_80_)" d="M58.184,98.087c0.007-0.01,0.013-0.02,0.02-0.029c0.006-0.009,0.011-0.018,0.016-0.027
		c0.004-0.006,0.007-0.011,0.011-0.018c-0.018,0.028-0.036,0.056-0.054,0.083C58.18,98.093,58.182,98.09,58.184,98.087z"/>
	
		<linearGradient id="SVGID_81_" gradientUnits="userSpaceOnUse" x1="-2346.7505" y1="-2060.7578" x2="-2346.7209" y2="-2060.7578" gradientTransform="matrix(1 0 0 1 2404.7998 2159.0195)">
		<stop  offset="0" style="stop-color:#00CC00"/>
		<stop  offset="1" style="stop-color:#339933"/>
	</linearGradient>
	<path fill="url(#SVGID_81_)" d="M58.079,98.241c-0.01,0.014-0.02,0.028-0.029,0.041C58.059,98.269,58.069,98.255,58.079,98.241z"/>
	
		<linearGradient id="SVGID_82_" gradientUnits="userSpaceOnUse" x1="-2346.8835" y1="-2060.5952" x2="-2346.8367" y2="-2060.5952" gradientTransform="matrix(1 0 0 1 2404.7998 2159.0195)">
		<stop  offset="0" style="stop-color:#00CC00"/>
		<stop  offset="1" style="stop-color:#339933"/>
	</linearGradient>
	<path fill="url(#SVGID_82_)" d="M57.963,98.396c-0.016,0.019-0.031,0.039-0.047,0.058C57.932,98.434,57.948,98.415,57.963,98.396z"
		/>
	
		<linearGradient id="SVGID_83_" gradientUnits="userSpaceOnUse" x1="-2346.5339" y1="-2061.0781" x2="-2346.5159" y2="-2061.0781" gradientTransform="matrix(1 0 0 1 2404.7998 2159.0195)">
		<stop  offset="0" style="stop-color:#00CC00"/>
		<stop  offset="1" style="stop-color:#339933"/>
	</linearGradient>
	<path fill="url(#SVGID_83_)" d="M58.284,97.926c-0.006,0.01-0.012,0.021-0.018,0.031C58.272,97.947,58.278,97.936,58.284,97.926z"
		/>
	
		<linearGradient id="SVGID_84_" gradientUnits="userSpaceOnUse" x1="-2346.3418" y1="-2061.4414" x2="-2346.3274" y2="-2061.4414" gradientTransform="matrix(1 0 0 1 2404.7998 2159.0195)">
		<stop  offset="0" style="stop-color:#00CC00"/>
		<stop  offset="1" style="stop-color:#339933"/>
	</linearGradient>
	<path fill="url(#SVGID_84_)" d="M58.472,97.563c-0.004,0.01-0.01,0.021-0.015,0.031C58.463,97.584,58.468,97.573,58.472,97.563z"/>
	
		<linearGradient id="SVGID_85_" gradientUnits="userSpaceOnUse" x1="-2345.9827" y1="-2063.1553" x2="-2345.9617" y2="-2063.1553" gradientTransform="matrix(1 0 0 1 2404.7998 2159.0195)">
		<stop  offset="0" style="stop-color:#00CC00"/>
		<stop  offset="1" style="stop-color:#339933"/>
	</linearGradient>
	<path fill="url(#SVGID_85_)" d="M58.82,96.262c0.025-0.263,0.025-0.528-0.002-0.795c0.014,0.136,0.021,0.273,0.021,0.412
		C58.838,96.009,58.832,96.136,58.82,96.262z"/>
	
		<linearGradient id="SVGID_86_" gradientUnits="userSpaceOnUse" x1="-2346.4836" y1="-2061.1665" x2="-2346.4656" y2="-2061.1665" gradientTransform="matrix(1 0 0 1 2404.7998 2159.0195)">
		<stop  offset="0" style="stop-color:#00CC00"/>
		<stop  offset="1" style="stop-color:#339933"/>
	</linearGradient>
	<path fill="url(#SVGID_86_)" d="M58.334,97.837c-0.006,0.011-0.011,0.021-0.018,0.031C58.323,97.858,58.329,97.848,58.334,97.837z"
		/>
	
		<linearGradient id="SVGID_87_" gradientUnits="userSpaceOnUse" x1="-2346.387" y1="-2061.3477" x2="-2346.3708" y2="-2061.3477" gradientTransform="matrix(1 0 0 1 2404.7998 2159.0195)">
		<stop  offset="0" style="stop-color:#00CC00"/>
		<stop  offset="1" style="stop-color:#339933"/>
	</linearGradient>
	<path fill="url(#SVGID_87_)" d="M58.429,97.655c-0.005,0.011-0.011,0.021-0.016,0.033C58.418,97.677,58.424,97.666,58.429,97.655z"
		/>
	
		<linearGradient id="SVGID_88_" gradientUnits="userSpaceOnUse" x1="-2346.4338" y1="-2061.2563" x2="-2346.4172" y2="-2061.2563" gradientTransform="matrix(1 0 0 1 2404.7998 2159.0195)">
		<stop  offset="0" style="stop-color:#00CC00"/>
		<stop  offset="1" style="stop-color:#339933"/>
	</linearGradient>
	<path fill="url(#SVGID_88_)" d="M58.383,97.747c-0.005,0.011-0.011,0.021-0.017,0.032C58.372,97.769,58.377,97.758,58.383,97.747z"
		/>
	<path fill="#02E900" d="M13.742,99.914c-0.037-0.003-0.074-0.008-0.111-0.012C13.668,99.906,13.705,99.911,13.742,99.914z"/>
	<path fill="#02E900" d="M13.343,99.854c-0.009-0.002-0.018-0.003-0.026-0.005C13.325,99.851,13.334,99.853,13.343,99.854z"/>
	<path fill="#02E900" d="M13.575,99.894c-0.046-0.007-0.093-0.014-0.139-0.022C13.483,99.88,13.529,99.888,13.575,99.894z"/>
	<path fill="#02E900" d="M13.165,99.814c-0.052-0.014-0.104-0.027-0.154-0.042C13.061,99.788,13.114,99.801,13.165,99.814z"/>
	
		<linearGradient id="SVGID_89_" gradientUnits="userSpaceOnUse" x1="-2346.3401" y1="-2064.834" x2="-2346.323" y2="-2064.834" gradientTransform="matrix(1 0 0 1 2404.7998 2159.0195)">
		<stop  offset="0" style="stop-color:#00CC00"/>
		<stop  offset="1" style="stop-color:#339933"/>
	</linearGradient>
	<path fill="url(#SVGID_89_)" d="M58.46,94.167c0.005,0.012,0.012,0.024,0.017,0.036C58.471,94.191,58.465,94.179,58.46,94.167z"/>
	
		<linearGradient id="SVGID_90_" gradientUnits="userSpaceOnUse" x1="-2349.3059" y1="-2059.1563" x2="-2349.2126" y2="-2059.1563" gradientTransform="matrix(1 0 0 1 2404.7998 2159.0195)">
		<stop  offset="0" style="stop-color:#00CC00"/>
		<stop  offset="1" style="stop-color:#339933"/>
	</linearGradient>
	<path fill="url(#SVGID_90_)" d="M55.499,99.872c0.001,0,0.003,0,0.004,0c0.027-0.005,0.053-0.01,0.08-0.016
		c0.002,0,0.003-0.001,0.005-0.001c-0.031,0.007-0.062,0.013-0.093,0.018C55.495,99.872,55.497,99.872,55.499,99.872z"/>
	
		<linearGradient id="SVGID_91_" gradientUnits="userSpaceOnUse" x1="-2349.1863" y1="-2059.1768" x2="-2349.1257" y2="-2059.1768" gradientTransform="matrix(1 0 0 1 2404.7998 2159.0195)">
		<stop  offset="0" style="stop-color:#00CC00"/>
		<stop  offset="1" style="stop-color:#339933"/>
	</linearGradient>
	<path fill="url(#SVGID_91_)" d="M55.62,99.848c0.018-0.004,0.034-0.007,0.051-0.011c0.001,0,0.001-0.001,0.003-0.001
		c-0.021,0.005-0.041,0.009-0.061,0.013C55.615,99.848,55.618,99.848,55.62,99.848z"/>
	
		<linearGradient id="SVGID_92_" gradientUnits="userSpaceOnUse" x1="-2349.0613" y1="-2059.2021" x2="-2349.0354" y2="-2059.2021" gradientTransform="matrix(1 0 0 1 2404.7998 2159.0195)">
		<stop  offset="0" style="stop-color:#00CC00"/>
		<stop  offset="1" style="stop-color:#339933"/>
	</linearGradient>
	<path fill="url(#SVGID_92_)" d="M55.743,99.82c0.006-0.002,0.014-0.003,0.021-0.005c0,0,0.001,0,0.001,0
		c-0.008,0.002-0.017,0.003-0.026,0.006C55.74,99.82,55.741,99.82,55.743,99.82z"/>
	
		<linearGradient id="SVGID_93_" gradientUnits="userSpaceOnUse" x1="-2346.2419" y1="-2064.6079" x2="-2346.2292" y2="-2064.6079" gradientTransform="matrix(1 0 0 1 2404.7998 2159.0195)">
		<stop  offset="0" style="stop-color:#00CC00"/>
		<stop  offset="1" style="stop-color:#339933"/>
	</linearGradient>
	<path fill="url(#SVGID_93_)" d="M58.558,94.395c0.004,0.011,0.009,0.022,0.013,0.033C58.567,94.417,58.562,94.406,58.558,94.395z"
		/>
	
		<linearGradient id="SVGID_94_" gradientUnits="userSpaceOnUse" x1="-2346.2917" y1="-2064.7334" x2="-2346.2808" y2="-2064.7334" gradientTransform="matrix(1 0 0 1 2404.7998 2159.0195)">
		<stop  offset="0" style="stop-color:#00CC00"/>
		<stop  offset="1" style="stop-color:#339933"/>
	</linearGradient>
	<path fill="url(#SVGID_94_)" d="M58.508,94.273c0.003,0.009,0.007,0.018,0.011,0.026C58.515,94.291,58.511,94.282,58.508,94.273z"
		/>
	
		<linearGradient id="SVGID_95_" gradientUnits="userSpaceOnUse" x1="-2349.5007" y1="-2059.1221" x2="-2349.4451" y2="-2059.1221" gradientTransform="matrix(1 0 0 1 2404.7998 2159.0195)">
		<stop  offset="0" style="stop-color:#00CC00"/>
		<stop  offset="1" style="stop-color:#339933"/>
	</linearGradient>
	<path fill="url(#SVGID_95_)" d="M55.355,99.894c-0.019,0.002-0.037,0.005-0.056,0.007C55.318,99.899,55.337,99.897,55.355,99.894z"
		/>
	<path fill="#02E900" d="M13.256,99.836c-0.021-0.005-0.042-0.01-0.064-0.015C13.214,99.826,13.235,99.831,13.256,99.836z"/>
	<path fill="#02E900" d="M13.008,99.772c-0.102-0.03-0.201-0.063-0.298-0.1C12.807,99.709,12.906,99.742,13.008,99.772z"/>
	<path fill="#02E900" d="M12.698,99.668c-0.097-0.038-0.192-0.078-0.286-0.123C12.507,99.59,12.602,99.63,12.698,99.668z"/>
	<path fill="#02E900" d="M12.407,99.543c-0.046-0.021-0.09-0.044-0.135-0.067C12.317,99.499,12.362,99.521,12.407,99.543z"/>
	
		<linearGradient id="SVGID_96_" gradientUnits="userSpaceOnUse" x1="-2394.7078" y1="-2063.1406" x2="-2345.9617" y2="-2063.1406" gradientTransform="matrix(1 0 0 1 2404.7998 2159.0195)">
		<stop  offset="0" style="stop-color:#00CC00"/>
		<stop  offset="1" style="stop-color:#339933"/>
	</linearGradient>
	<path fill="url(#SVGID_96_)" d="M58.82,96.262c0.012-0.126,0.019-0.253,0.019-0.383c0-0.139-0.007-0.276-0.021-0.412
		c0-0.001,0-0.002,0-0.003c-0.003-0.034-0.007-0.067-0.011-0.101c0-0.001-0.001-0.003-0.001-0.005
		c-0.006-0.053-0.015-0.106-0.023-0.16c-0.005-0.031-0.011-0.063-0.018-0.094c-0.008-0.046-0.018-0.092-0.029-0.138
		c0-0.001,0-0.002,0-0.004c-0.005-0.02-0.01-0.04-0.015-0.059c-0.005-0.021-0.011-0.042-0.016-0.064
		c-0.004-0.014-0.007-0.027-0.011-0.041c-0.006-0.02-0.012-0.041-0.018-0.062c-0.004-0.014-0.008-0.028-0.012-0.042
		c-0.006-0.02-0.013-0.041-0.019-0.061c-0.005-0.014-0.009-0.027-0.014-0.041c-0.006-0.021-0.014-0.04-0.021-0.061
		c-0.005-0.013-0.009-0.027-0.014-0.039c-0.008-0.022-0.016-0.043-0.025-0.066c-0.003-0.011-0.008-0.021-0.012-0.033
		c-0.013-0.032-0.026-0.064-0.04-0.095c-0.004-0.008-0.008-0.018-0.011-0.026c-0.01-0.023-0.021-0.046-0.031-0.07
		c-0.005-0.012-0.012-0.025-0.017-0.037c-0.009-0.019-0.018-0.039-0.027-0.058c-0.658-1.353-2.044-2.286-3.65-2.286h-6.365H20.512
		h-6.365c-1.606,0-2.993,0.933-3.649,2.286c-0.01,0.019-0.019,0.039-0.028,0.059c-0.005,0.012-0.011,0.023-0.017,0.035
		c-0.011,0.024-0.021,0.049-0.032,0.073c-0.004,0.007-0.007,0.015-0.01,0.022c-0.014,0.032-0.026,0.064-0.039,0.097
		c-0.004,0.009-0.007,0.019-0.011,0.028c-0.009,0.023-0.018,0.046-0.026,0.07c-0.004,0.012-0.008,0.024-0.013,0.037
		c-0.007,0.021-0.015,0.042-0.021,0.063c-0.004,0.013-0.009,0.026-0.013,0.039c-0.007,0.021-0.014,0.042-0.02,0.063
		c-0.004,0.013-0.008,0.027-0.012,0.04c-0.006,0.021-0.012,0.042-0.018,0.063c-0.003,0.013-0.007,0.026-0.011,0.041
		c-0.006,0.021-0.011,0.042-0.016,0.064c-0.005,0.019-0.01,0.039-0.015,0.059c0,0.001-0.001,0.003-0.001,0.005
		c-0.01,0.046-0.02,0.091-0.029,0.137c-0.006,0.031-0.012,0.062-0.017,0.093c-0.015,0.088-0.027,0.177-0.036,0.267
		c0,0,0,0.002,0,0.002c-0.014,0.137-0.021,0.274-0.021,0.413c0,0.13,0.006,0.257,0.018,0.384c0.003,0.029,0.006,0.058,0.009,0.086
		c0.005,0.041,0.01,0.08,0.016,0.12c0.003,0.021,0.007,0.043,0.01,0.065c0.002,0.013,0.004,0.026,0.006,0.039
		c0.004,0.022,0.008,0.044,0.012,0.066c0.003,0.013,0.005,0.025,0.008,0.037c0.004,0.023,0.009,0.045,0.014,0.068
		c0.002,0.011,0.005,0.023,0.008,0.035c0.005,0.023,0.011,0.046,0.016,0.07c0.002,0.011,0.005,0.021,0.008,0.032
		c0.007,0.025,0.013,0.05,0.02,0.075c0.002,0.008,0.004,0.018,0.007,0.026c0.008,0.029,0.017,0.059,0.026,0.087
		c0.001,0.003,0.002,0.008,0.003,0.012c0.021,0.066,0.043,0.133,0.067,0.198c0.002,0.006,0.004,0.011,0.006,0.017
		c0.01,0.027,0.021,0.054,0.031,0.08c0.004,0.009,0.007,0.018,0.012,0.027c0.009,0.022,0.018,0.045,0.028,0.068
		c0.004,0.01,0.009,0.021,0.014,0.031c0.009,0.021,0.018,0.042,0.027,0.062c0.005,0.011,0.011,0.022,0.016,0.034
		c0.009,0.02,0.019,0.039,0.028,0.059c0.005,0.011,0.011,0.023,0.017,0.034c0.01,0.02,0.02,0.038,0.029,0.057
		c0.006,0.012,0.012,0.023,0.018,0.035c0.01,0.019,0.02,0.037,0.03,0.055c0.007,0.012,0.013,0.022,0.02,0.034
		c0.01,0.019,0.021,0.037,0.031,0.055c0.006,0.012,0.013,0.022,0.02,0.034c0.011,0.018,0.021,0.036,0.032,0.054
		c0.018,0.028,0.036,0.057,0.055,0.085c0.031,0.049,0.064,0.096,0.098,0.144c0.01,0.014,0.02,0.027,0.03,0.041
		c0.028,0.038,0.057,0.076,0.086,0.113c0.015,0.02,0.031,0.039,0.046,0.058c0.025,0.032,0.052,0.062,0.078,0.092
		c0.027,0.03,0.055,0.061,0.082,0.09c0.018,0.02,0.035,0.038,0.053,0.056c0.031,0.032,0.063,0.065,0.096,0.096
		c0.017,0.017,0.034,0.033,0.051,0.049c0.031,0.03,0.063,0.058,0.095,0.086c0.026,0.023,0.052,0.046,0.079,0.067
		c0.023,0.02,0.046,0.039,0.071,0.058c0.039,0.032,0.078,0.062,0.117,0.091c0.013,0.009,0.025,0.018,0.038,0.027
		c0.05,0.036,0.101,0.071,0.153,0.105c0.009,0.006,0.017,0.012,0.025,0.017c0.005,0.003,0.01,0.007,0.016,0.01
		c0.011,0.006,0.022,0.014,0.033,0.021c0.085,0.053,0.171,0.103,0.26,0.149c0.005,0.002,0.009,0.005,0.013,0.007
		c0.045,0.023,0.09,0.046,0.136,0.067c0.002,0,0.004,0.001,0.005,0.002c0.094,0.044,0.189,0.084,0.286,0.122
		c0.004,0.001,0.007,0.002,0.011,0.004c0.098,0.037,0.197,0.071,0.298,0.101c0.001,0,0.002,0,0.003,0
		c0.05,0.015,0.103,0.029,0.154,0.042c0.009,0.002,0.018,0.005,0.026,0.007c0.021,0.005,0.043,0.01,0.064,0.015
		c0.021,0.005,0.041,0.009,0.061,0.013c0.008,0.002,0.017,0.003,0.026,0.005c0.031,0.007,0.062,0.012,0.093,0.018
		c0.046,0.008,0.092,0.015,0.139,0.022c0.019,0.002,0.038,0.005,0.056,0.008c0.037,0.004,0.074,0.009,0.111,0.012
		c0.133,0.013,0.269,0.02,0.405,0.02H14.2h40.53h0.053c0.137,0,0.271-0.007,0.404-0.02c0.038-0.003,0.075-0.008,0.112-0.013
		c0.019-0.001,0.037-0.005,0.056-0.007c0.045-0.007,0.093-0.014,0.139-0.022c0.031-0.006,0.062-0.011,0.093-0.018
		c0.008-0.002,0.017-0.003,0.026-0.005c0.021-0.004,0.041-0.008,0.061-0.013c0.021-0.005,0.043-0.01,0.065-0.015
		c0.008-0.002,0.017-0.004,0.025-0.007c0.052-0.013,0.104-0.026,0.155-0.042c0.001,0,0.002,0,0.002,0
		c0.101-0.03,0.201-0.063,0.299-0.101c0.004-0.001,0.007-0.002,0.011-0.004c0.097-0.037,0.192-0.078,0.286-0.122
		c0.002-0.001,0.004-0.002,0.006-0.002c0.045-0.021,0.09-0.044,0.135-0.067c0.004-0.002,0.008-0.005,0.013-0.007
		c0.089-0.047,0.175-0.096,0.26-0.149c0.011-0.007,0.023-0.014,0.033-0.021c0.005-0.003,0.011-0.007,0.016-0.01
		c0.009-0.005,0.017-0.011,0.024-0.016c0.052-0.035,0.103-0.07,0.154-0.106c0.013-0.009,0.024-0.018,0.037-0.027
		c0.041-0.03,0.08-0.061,0.118-0.091c0.024-0.019,0.047-0.038,0.07-0.057c0.027-0.022,0.053-0.045,0.079-0.068
		c0.032-0.028,0.063-0.057,0.094-0.086c0.017-0.016,0.034-0.032,0.051-0.049c0.033-0.031,0.065-0.064,0.097-0.096
		c0.018-0.018,0.035-0.036,0.052-0.056c0.028-0.029,0.056-0.06,0.083-0.091c0.026-0.03,0.052-0.06,0.077-0.091
		c0.016-0.02,0.031-0.039,0.047-0.058c0.029-0.038,0.058-0.075,0.086-0.113c0.01-0.014,0.02-0.028,0.03-0.041
		c0.034-0.048,0.067-0.096,0.099-0.145c0.019-0.028,0.036-0.056,0.054-0.083c0.011-0.019,0.023-0.037,0.034-0.056
		c0.006-0.01,0.012-0.021,0.018-0.032c0.012-0.019,0.022-0.037,0.033-0.057c0.006-0.011,0.012-0.021,0.018-0.032
		c0.011-0.019,0.021-0.038,0.031-0.058c0.006-0.011,0.012-0.021,0.017-0.032c0.011-0.02,0.021-0.04,0.03-0.06
		c0.005-0.011,0.011-0.021,0.017-0.032c0.01-0.021,0.019-0.041,0.029-0.062c0.005-0.01,0.01-0.021,0.015-0.031
		c0.01-0.021,0.019-0.043,0.029-0.064c0.004-0.01,0.008-0.02,0.013-0.029c0.01-0.024,0.02-0.047,0.029-0.071
		c0.003-0.008,0.007-0.016,0.01-0.024c0.011-0.028,0.021-0.056,0.032-0.084c0.001-0.003,0.003-0.007,0.005-0.011
		c0.024-0.066,0.046-0.132,0.067-0.199c0.001-0.003,0.002-0.006,0.003-0.009c0.009-0.03,0.018-0.061,0.027-0.09
		c0.001-0.009,0.004-0.017,0.006-0.025c0.007-0.025,0.014-0.051,0.021-0.075c0.002-0.011,0.005-0.021,0.007-0.032
		c0.006-0.023,0.011-0.046,0.017-0.069c0.002-0.012,0.005-0.024,0.007-0.036c0.005-0.022,0.01-0.044,0.015-0.067
		c0.002-0.012,0.005-0.025,0.007-0.038c0.004-0.022,0.008-0.043,0.012-0.066c0.002-0.013,0.004-0.026,0.006-0.039
		c0.004-0.021,0.007-0.044,0.011-0.065c0.005-0.04,0.011-0.08,0.015-0.12C58.814,96.32,58.817,96.292,58.82,96.262z"/>
</g>
<g>
	<g>
		<path fill="#339933" d="M139.969,62.7c0.663,0,1.181,0.233,1.552,0.703c0.37,0.468,0.478,1.035,0.322,1.698
			c-0.137,0.664-0.488,1.23-1.054,1.698c-0.566,0.469-1.181,0.704-1.844,0.704h-19.558c-0.664,0-1.181-0.234-1.552-0.704
			c-0.371-0.468-0.488-1.034-0.352-1.698l8.315-39.086c0.136-0.664,0.498-1.229,1.083-1.698c0.565-0.469,1.181-0.702,1.844-0.702
			c0.684,0,1.211,0.233,1.582,0.702c0.351,0.469,0.458,1.035,0.322,1.698L122.842,62.7H139.969z"/>
		<path fill="#339933" d="M168.369,65.101c-0.137,0.664-0.488,1.23-1.054,1.698c-0.567,0.469-1.182,0.704-1.844,0.704
			c-0.684,0-1.211-0.234-1.581-0.704c-0.372-0.468-0.488-1.034-0.352-1.698l0.264-1.112c-1.776,1.639-3.797,2.712-6.061,3.22
			c-2.167,0.488-4.177,0.37-6.031-0.352c-1.932-0.741-3.328-2.04-4.187-3.894c-0.957-2.05-1.122-4.548-0.497-7.495l2.108-9.896
			c0.156-0.683,0.517-1.259,1.083-1.727c0.566-0.469,1.181-0.702,1.845-0.702c0.683,0,1.21,0.233,1.581,0.702
			c0.371,0.468,0.478,1.044,0.322,1.727l-2.108,9.896c-0.703,3.337,0.166,5.563,2.606,6.675c0.8,0.37,1.708,0.556,2.723,0.556
			c1.034,0,2.029-0.186,2.986-0.556c2.888-1.113,4.694-3.318,5.417-6.617l2.108-9.955c0.155-0.683,0.517-1.259,1.083-1.727
			c0.566-0.469,1.191-0.703,1.875-0.703c0.663,0,1.181,0.234,1.552,0.703c0.37,0.468,0.478,1.044,0.322,1.727L168.369,65.101z"/>
		<path fill="#339933" d="M193.372,64.076c-1.834,1.678-3.952,2.743-6.353,3.191c-2.284,0.429-4.412,0.234-6.383-0.586
			c-2.05-0.839-3.552-2.205-4.509-4.099c-1.054-2.068-1.279-4.499-0.674-7.29c0.586-2.791,1.845-5.221,3.777-7.291
			c1.756-1.873,3.835-3.23,6.235-4.069c2.323-0.839,4.539-1.044,6.646-0.615c2.206,0.449,3.865,1.513,4.978,3.191l0.204-0.966
			c0.157-0.683,0.527-1.259,1.113-1.728c0.566-0.468,1.181-0.703,1.845-0.703c0.664,0,1.181,0.234,1.551,0.703
			c0.371,0.468,0.479,1.044,0.323,1.728l-4.129,19.528c-0.156,0.664-0.517,1.229-1.083,1.698c-0.566,0.469-1.181,0.703-1.844,0.703
			c-0.664,0-1.181-0.234-1.552-0.703c-0.39-0.468-0.508-1.034-0.351-1.698L193.372,64.076z M189.39,47.856
			c-2.068,0-3.981,0.722-5.738,2.167c-1.776,1.464-2.879,3.221-3.309,5.27c-0.45,2.068-0.098,3.826,1.054,5.27
			c1.132,1.464,2.732,2.196,4.802,2.196c2.049,0,3.962-0.731,5.739-2.196c1.756-1.444,2.858-3.202,3.308-5.27
			c0.429-2.049,0.078-3.806-1.054-5.27C193.04,48.578,191.44,47.856,189.39,47.856z"/>
		<path fill="#339933" d="M207.983,45.572c0.156-0.683,0.517-1.259,1.083-1.727c0.566-0.469,1.181-0.703,1.845-0.703
			c0.683,0,1.21,0.234,1.581,0.703c0.37,0.468,0.478,1.044,0.322,1.727l-0.234,1.113c1.776-1.64,3.796-2.713,6.061-3.22
			c2.167-0.508,4.176-0.4,6.031,0.322c1.932,0.761,3.327,2.068,4.187,3.923c0.937,2.05,1.093,4.538,0.468,7.466l-2.107,9.924
			c-0.137,0.665-0.488,1.23-1.054,1.698c-0.566,0.469-1.181,0.703-1.845,0.703c-0.683,0-1.21-0.234-1.581-0.703
			c-0.372-0.468-0.488-1.034-0.352-1.698l2.108-9.924c0.721-3.319-0.137-5.544-2.577-6.675c-0.8-0.371-1.718-0.557-2.752-0.557
			c-1.015,0-2.001,0.187-2.957,0.557c-2.889,1.131-4.695,3.348-5.417,6.646l-2.137,9.955c-0.136,0.664-0.488,1.23-1.054,1.699
			c-0.567,0.468-1.19,0.703-1.874,0.703c-0.663,0-1.181-0.234-1.551-0.703c-0.372-0.469-0.488-1.035-0.352-1.699L207.983,45.572z"/>
	</g>
	<g>
		<path fill="#333333" d="M261.82,53.448l-5.329,12.238c-0.293,0.644-0.752,1.142-1.376,1.493c-0.644,0.352-1.278,0.459-1.903,0.322
			c-0.625-0.156-1.054-0.507-1.289-1.054c-0.234-0.566-0.215-1.171,0.058-1.815l15.488-35.309c0.917-2.127,2.245-3.669,3.982-4.626
			c1.308-0.722,2.752-1.083,4.333-1.083c1.581,0,2.869,0.371,3.864,1.112c1.328,0.996,2.01,2.527,2.05,4.597l0.41,35.309
			c0.019,0.645-0.215,1.25-0.704,1.815c-0.468,0.546-1.044,0.898-1.727,1.054c-0.664,0.136-1.24,0.029-1.728-0.323
			c-0.488-0.351-0.731-0.849-0.731-1.493l-0.176-12.238H261.82L261.82,53.448z M276.986,48.764l-0.234-18.387
			c0-0.78-0.195-1.307-0.585-1.581c-0.293-0.233-0.761-0.351-1.406-0.351c-0.684,0-1.21,0.108-1.581,0.322
			c-0.488,0.253-0.907,0.79-1.259,1.61l-8.051,18.387H276.986L276.986,48.764z"/>
		<path fill="#333333" d="M308.518,45.631c0.157-0.683,0.527-1.259,1.113-1.728c0.565-0.469,1.18-0.703,1.844-0.703
			c0.663,0,1.181,0.234,1.551,0.703c0.371,0.468,0.479,1.045,0.323,1.728l-8.315,39.086c-0.137,0.664-0.488,1.229-1.054,1.699
			c-0.566,0.468-1.181,0.702-1.845,0.702c-0.664,0-1.181-0.234-1.551-0.702c-0.391-0.469-0.518-1.035-0.381-1.699l4.392-20.553
			c-1.854,1.679-3.981,2.742-6.383,3.191c-2.264,0.429-4.381,0.234-6.353-0.586c-2.049-0.839-3.562-2.206-4.538-4.099
			c-1.035-2.068-1.259-4.5-0.673-7.29c0.605-2.792,1.864-5.221,3.777-7.291c1.776-1.874,3.865-3.23,6.266-4.069
			c2.322-0.839,4.527-1.044,6.617-0.615c2.205,0.449,3.874,1.513,5.007,3.191L308.518,45.631z M303.16,60.65
			c1.756-1.443,2.85-3.2,3.279-5.27c0.448-2.049,0.106-3.806-1.025-5.27c-1.171-1.444-2.781-2.167-4.831-2.167
			c-2.069,0-3.972,0.722-5.709,2.167c-1.777,1.464-2.89,3.221-3.338,5.27c-0.43,2.069-0.069,3.826,1.083,5.27
			c1.132,1.464,2.733,2.197,4.801,2.197C299.471,62.847,301.384,62.114,303.16,60.65z"/>
		<path fill="#333333" d="M338.441,65.159c-0.137,0.664-0.488,1.23-1.054,1.698c-0.566,0.468-1.181,0.703-1.845,0.703
			c-0.684,0-1.21-0.235-1.581-0.703c-0.372-0.468-0.488-1.034-0.352-1.698l0.264-1.113c-1.776,1.64-3.796,2.713-6.061,3.221
			c-2.167,0.487-4.177,0.371-6.032-0.352c-1.932-0.741-3.328-2.04-4.186-3.894c-0.957-2.049-1.123-4.548-0.498-7.495l2.108-9.896
			c0.156-0.683,0.517-1.258,1.083-1.728c0.565-0.468,1.181-0.703,1.844-0.703c0.683,0,1.21,0.234,1.581,0.703
			c0.371,0.469,0.478,1.045,0.322,1.728l-2.108,9.896c-0.703,3.338,0.166,5.563,2.606,6.675c0.8,0.371,1.708,0.556,2.723,0.556
			c1.034,0,2.03-0.185,2.986-0.556c2.888-1.113,4.694-3.318,5.416-6.617l2.108-9.955c0.156-0.683,0.517-1.259,1.083-1.728
			c0.566-0.469,1.19-0.703,1.874-0.703c0.664,0,1.181,0.234,1.551,0.703c0.371,0.468,0.479,1.045,0.322,1.728L338.441,65.159z"/>
		<path fill="#333333" d="M348.453,45.631c0.156-0.683,0.517-1.259,1.084-1.728c0.566-0.469,1.181-0.703,1.845-0.703
			c0.683,0,1.21,0.234,1.581,0.703c0.371,0.468,0.479,1.045,0.322,1.728l-4.157,19.528c-0.137,0.664-0.489,1.23-1.054,1.698
			c-0.567,0.468-1.19,0.703-1.874,0.703c-0.664,0-1.181-0.235-1.551-0.703c-0.372-0.468-0.488-1.034-0.352-1.698L348.453,45.631z
			 M355.406,33.231c0.42,0.518,0.552,1.147,0.396,1.889c-0.176,0.742-0.582,1.371-1.215,1.888c-0.635,0.518-1.323,0.776-2.064,0.776
			c-0.742,0-1.317-0.259-1.728-0.776c-0.41-0.517-0.527-1.146-0.351-1.888c0.156-0.742,0.546-1.371,1.171-1.889
			c0.625-0.517,1.307-0.775,2.049-0.775C354.406,32.456,354.987,32.714,355.406,33.231z"/>
		<path fill="#333333" d="M359.14,45.631c0.156-0.683,0.517-1.259,1.083-1.728c0.566-0.469,1.181-0.703,1.844-0.703
			c0.684,0,1.211,0.234,1.582,0.703c0.37,0.468,0.478,1.045,0.323,1.728l-0.234,1.113c1.775-1.64,3.795-2.713,6.06-3.221
			c2.167-0.507,4.177-0.399,6.031,0.323c1.933,0.76,3.328,2.069,4.188,3.923c0.937,2.049,1.093,4.538,0.469,7.465l-2.108,9.926
			c-0.137,0.664-0.488,1.229-1.054,1.698c-0.566,0.468-1.182,0.702-1.845,0.702c-0.684,0-1.211-0.234-1.581-0.702
			c-0.371-0.469-0.488-1.035-0.352-1.698l2.108-9.926c0.722-3.317-0.137-5.542-2.576-6.674c-0.8-0.372-1.717-0.557-2.752-0.557
			c-1.015,0-2,0.186-2.957,0.557c-2.889,1.132-4.694,3.347-5.417,6.646l-2.137,9.955c-0.136,0.664-0.488,1.23-1.054,1.698
			c-0.566,0.468-1.19,0.703-1.874,0.703c-0.664,0-1.181-0.235-1.552-0.703s-0.488-1.034-0.352-1.698L359.14,45.631z"/>
		<path fill="#333333" d="M400.217,43.201c3.376,0,5.992,1.191,7.846,3.572c1.874,2.382,2.45,5.251,1.727,8.608
			c-0.702,3.377-2.499,6.256-5.387,8.637c-2.87,2.361-5.992,3.543-9.369,3.543c-3.357,0-5.972-1.182-7.846-3.543
			c-1.874-2.381-2.459-5.26-1.757-8.637c0.721-3.357,2.528-6.226,5.417-8.608C393.736,44.392,396.86,43.201,400.217,43.201z
			 M393.512,50.198c-1.717,1.425-2.801,3.152-3.25,5.182c-0.43,2.03-0.078,3.768,1.054,5.211c1.132,1.445,2.712,2.167,4.743,2.167
			c2.03,0,3.923-0.721,5.679-2.167c1.737-1.444,2.821-3.181,3.25-5.211c0.449-2.03,0.098-3.757-1.054-5.182
			c-1.132-1.444-2.713-2.167-4.743-2.167C397.162,48.032,395.269,48.754,393.512,50.198z"/>
	</g>
</g>
</svg>
