<?xml version="1.0" encoding="utf-8"?>
<!-- Generator: Adobe Illustrator 16.0.0, SVG Export Plug-In . SVG Version: 6.00 Build 0)  -->
<!DOCTYPE svg PUBLIC "-//W3C//DTD SVG 1.1//EN" "http://www.w3.org/Graphics/SVG/1.1/DTD/svg11.dtd">
<svg version="1.1" id="Layer_1" xmlns="http://www.w3.org/2000/svg" xmlns:xlink="http://www.w3.org/1999/xlink" x="0px" y="0px"
	 width="130.42px" height="128px" viewBox="0 0 130.42 128" enable-background="new 0 0 130.42 128" xml:space="preserve">
<g>
	<path fill-rule="evenodd" clip-rule="evenodd" fill="#030303" d="M103.419,102.567c0.423,1.232,1.241,2.039,2.131,2.781
		c1.446,1.204,3.07,2.144,4.691,3.083c4.215,2.442,7.798,5.609,10.832,9.412c0.233,0.292,0.473,0.588,0.751,0.834
		c1.445,1.276,2.653,2.711,3.152,4.686c-0.497-0.129-0.869-0.473-1.246-0.809c-3.447-3.069-7.156-5.754-11.442-7.539
		c-3.813-1.588-7.253-3.779-10.412-6.403c-2.084-1.73-3.8-3.789-4.798-6.363c-0.057-0.146-0.116-0.29-0.186-0.43
		c-0.579-1.169-0.347-1.688,0.918-2.186c5.394-2.12,10.981-3.08,16.773-2.863c0.294,0.012,0.71,0.181,0.866-0.098
		c0.19-0.341-0.187-0.621-0.389-0.877c-0.488-0.619-1.1-1.119-1.766-1.527c-3.277-2.009-6.369-4.293-9.523-6.481
		c-3.087-2.141-6.634-3.159-10.121-4.303c-5.762-1.89-5.732-1.53-8.442-7.081c-3.564-7.304-7.218-14.581-10.133-22.193
		c-1.423-3.717-3.636-7.035-5.92-10.277c-6.948-9.864-15.71-17.646-26.578-22.986c-3.488-1.714-7.109-2.866-11.059-2.783
		c-1.399,0.029-2.777-0.349-4.191-0.379c-0.854-0.018-1.501-0.718-2.136-1.271c-3.48-3.036-7.625-4.815-11.927-6.282
		c-0.94-0.32-1.937-0.538-2.93-0.109c-1.18,0.509-1.737,1.529-1.477,2.789c0.356,1.722,1.258,3.182,2.294,4.561
		c0.957,1.273,1.935,2.532,2.939,3.769c3.044,3.744,4.99,8.021,6.317,12.632c1.043,3.625,2.172,7.23,4.108,10.515
		c0.828,1.405,1.71,2.761,2.95,3.848c1.655,1.452,2.079,3.2,1.472,5.327c-0.703,2.464-1.897,4.759-2.438,7.268
		c-1.624,7.531-1.25,14.892,1.978,21.988c0.627,1.379,1.363,2.684,2.785,3.415c0.981,0.506,1.22,0.374,1.362-0.707
		c0.368-2.816,0.569-5.653,1.19-8.438c0.536-2.399,1.537-4.536,3.17-6.381c0.496-0.561,0.964-1.152,1.381-1.773
		c0.345-0.514,0.563-0.343,0.791,0.053c0.124,0.215,0.231,0.443,0.311,0.679c3.188,9.373,8.18,17.762,14.073,25.646
		c1.307,1.748,2.795,3.368,4.576,4.678c0.221,0.162,0.456,0.335,0.554,0.737c-0.668-0.166-1.203-0.487-1.616-0.909
		c-3.416-3.484-7.452-6.277-10.822-9.821c-2.649-2.786-4.508-6.033-6.114-9.469c-0.337-0.722-0.708-1.428-1.272-2.129
		c-0.279,1.586-0.577,3.169-0.831,4.76c-0.23,1.447-0.305,2.921-0.74,4.334c-1.01,3.276-4.313,4.524-7.256,2.738
		c-1.253-0.761-2.208-1.83-3.057-3.001c-2.809-3.872-4.124-8.296-4.694-12.972c-0.67-5.498-0.244-10.907,1.44-16.207
		c0.481-1.513,0.564-3.135,1.157-4.625c0.691-1.74,0.676-1.88-0.724-3.154c-0.8-0.729-1.338-1.642-1.902-2.54
		c-2.41-3.834-3.936-8.055-5.401-12.304c-0.528-1.533-1.088-3.054-1.45-4.639c-0.325-1.424-1.035-2.672-1.844-3.863
		c-1.404-2.068-2.91-4.062-4.481-6.006c-1.357-1.68-2.631-3.416-3.421-5.451c-0.688-1.772-0.872-3.571-0.204-5.398
		c1.179-3.225,4.02-4.827,7.708-4.386c2.096,0.251,4.101,0.832,6.023,1.672c3.125,1.366,6.184,2.858,8.711,5.222
		c0.793,0.742,1.709,1.056,2.799,1.082c2.843,0.069,5.65,0.358,8.427,1.09c3.075,0.811,5.946,1.974,8.69,3.601
		c12.219,7.247,22.202,16.742,29.511,28.979c0.995,1.667,1.845,3.396,2.54,5.204c2.42,6.294,5.316,12.37,8.357,18.382
		c0.914,1.808,1.795,3.632,2.694,5.448c0.586,1.184,1.559,1.802,2.783,2.313c4.053,1.691,8.154,3.288,11.809,5.821
		c3.934,2.729,7.718,5.64,11.363,8.736c1.591,1.352,2.608,3.187,3.968,4.735c0.386,0.44,0.236,0.851-0.45,1.078
		c-3.015,0.996-6.119,1.479-9.263,1.811C108.496,101.134,106.07,102.25,103.419,102.567z"/>
	<path fill-rule="evenodd" clip-rule="evenodd" fill="#050505" d="M28.956,26.336c2.854-1.026,4.643-0.456,6.083,2.297
		c0.821,1.569,0.331,3.655-0.972,4.697c-0.335,0.269-0.494,0.274-0.651-0.148C32.446,30.584,30.82,28.399,28.956,26.336z"/>
</g>
</svg>
